<?xml version="1.0" encoding="UTF-8" standalone="no"?>
<!DOCTYPE svg PUBLIC "-//W3C//DTD SVG 1.1//EN"
 "http://www.w3.org/Graphics/SVG/1.1/DTD/svg11.dtd">
<!-- Generated by graphviz version 2.47.2 (20210527.1257)
 -->
<!-- Title: snakemake_dag Pages: 1 -->
<svg width="2263pt" height="404pt"
 viewBox="0.00 0.00 2263.00 404.00" xmlns="http://www.w3.org/2000/svg" xmlns:xlink="http://www.w3.org/1999/xlink">
<g id="graph0" class="graph" transform="scale(1 1) rotate(0) translate(4 400)">
<title>snakemake_dag</title>
<polygon fill="white" stroke="transparent" points="-4,4 -4,-400 2259,-400 2259,4 -4,4"/>
<!-- 0 -->
<g id="node1" class="node">
<title>0</title>
<path fill="none" stroke="#d85656" stroke-width="2" d="M1244.5,-36C1244.5,-36 1214.5,-36 1214.5,-36 1208.5,-36 1202.5,-30 1202.5,-24 1202.5,-24 1202.5,-12 1202.5,-12 1202.5,-6 1208.5,0 1214.5,0 1214.5,0 1244.5,0 1244.5,0 1250.5,0 1256.5,-6 1256.5,-12 1256.5,-12 1256.5,-24 1256.5,-24 1256.5,-30 1250.5,-36 1244.5,-36"/>
<text text-anchor="middle" x="1229.5" y="-15.5" font-family="sans" font-size="10.00">all</text>
</g>
<!-- 1 -->
<g id="node2" class="node">
<title>1</title>
<path fill="none" stroke="#ced856" stroke-width="2" d="M819.5,-108C819.5,-108 757.5,-108 757.5,-108 751.5,-108 745.5,-102 745.5,-96 745.5,-96 745.5,-84 745.5,-84 745.5,-78 751.5,-72 757.5,-72 757.5,-72 819.5,-72 819.5,-72 825.5,-72 831.5,-78 831.5,-84 831.5,-84 831.5,-96 831.5,-96 831.5,-102 825.5,-108 819.5,-108"/>
<text text-anchor="middle" x="788.5" y="-87.5" font-family="sans" font-size="10.00">reads_multiqc</text>
</g>
<!-- 1&#45;&gt;0 -->
<g id="edge1" class="edge">
<title>1&#45;&gt;0</title>
<path fill="none" stroke="grey" stroke-width="2" d="M831.59,-82.16C917.87,-68.46 1110.57,-37.88 1192.01,-24.95"/>
<polygon fill="grey" stroke="grey" stroke-width="2" points="1192.96,-28.34 1202.29,-23.32 1191.86,-21.43 1192.96,-28.34"/>
</g>
<!-- 2 -->
<g id="node3" class="node">
<title>2</title>
<path fill="none" stroke="#56d86b" stroke-width="2" d="M191,-180C191,-180 12,-180 12,-180 6,-180 0,-174 0,-168 0,-168 0,-156 0,-156 0,-150 6,-144 12,-144 12,-144 191,-144 191,-144 197,-144 203,-150 203,-156 203,-156 203,-168 203,-168 203,-174 197,-180 191,-180"/>
<text text-anchor="middle" x="101.5" y="-165" font-family="sans" font-size="10.00">reads_fastqc</text>
<text text-anchor="middle" x="101.5" y="-154" font-family="sans" font-size="10.00">sample: GSM1102782_CD14_H3K27ac</text>
</g>
<!-- 2&#45;&gt;0 -->
<g id="edge2" class="edge">
<title>2&#45;&gt;0</title>
<path fill="none" stroke="grey" stroke-width="2" d="M163.23,-143.98C240.18,-123.47 376,-89.59 494.5,-72 759.96,-32.6 1083.87,-22.18 1192.21,-19.71"/>
<polygon fill="grey" stroke="grey" stroke-width="2" points="1192.39,-23.2 1202.31,-19.48 1192.23,-16.21 1192.39,-23.2"/>
</g>
<!-- 2&#45;&gt;1 -->
<g id="edge14" class="edge">
<title>2&#45;&gt;1</title>
<path fill="none" stroke="grey" stroke-width="2" d="M203.06,-145.07C205.9,-144.7 208.72,-144.34 211.5,-144 403.83,-120.33 633.42,-102.27 735.3,-94.78"/>
<polygon fill="grey" stroke="grey" stroke-width="2" points="735.62,-98.27 745.33,-94.05 735.11,-91.29 735.62,-98.27"/>
</g>
<!-- 3 -->
<g id="node4" class="node">
<title>3</title>
<path fill="none" stroke="#56d86b" stroke-width="2" d="M422.5,-180C422.5,-180 232.5,-180 232.5,-180 226.5,-180 220.5,-174 220.5,-168 220.5,-168 220.5,-156 220.5,-156 220.5,-150 226.5,-144 232.5,-144 232.5,-144 422.5,-144 422.5,-144 428.5,-144 434.5,-150 434.5,-156 434.5,-156 434.5,-168 434.5,-168 434.5,-174 428.5,-180 422.5,-180"/>
<text text-anchor="middle" x="327.5" y="-165" font-family="sans" font-size="10.00">reads_fastqc</text>
<text text-anchor="middle" x="327.5" y="-154" font-family="sans" font-size="10.00">sample: GSM1102785_CD14_H3K27me3</text>
</g>
<!-- 3&#45;&gt;0 -->
<g id="edge3" class="edge">
<title>3&#45;&gt;0</title>
<path fill="none" stroke="grey" stroke-width="2" d="M377.99,-143.96C440.67,-123.51 551.22,-89.77 648.5,-72 851.65,-34.88 1099.75,-23.27 1192.34,-20.08"/>
<polygon fill="grey" stroke="grey" stroke-width="2" points="1192.46,-23.58 1202.34,-19.75 1192.22,-16.58 1192.46,-23.58"/>
</g>
<!-- 3&#45;&gt;1 -->
<g id="edge15" class="edge">
<title>3&#45;&gt;1</title>
<path fill="none" stroke="grey" stroke-width="2" d="M434.71,-144.72C528.97,-130.41 662.21,-110.18 735.33,-99.07"/>
<polygon fill="grey" stroke="grey" stroke-width="2" points="735.88,-102.53 745.24,-97.57 734.83,-95.61 735.88,-102.53"/>
</g>
<!-- 4 -->
<g id="node5" class="node">
<title>4</title>
<path fill="none" stroke="#56d86b" stroke-width="2" d="M654.5,-180C654.5,-180 464.5,-180 464.5,-180 458.5,-180 452.5,-174 452.5,-168 452.5,-168 452.5,-156 452.5,-156 452.5,-150 458.5,-144 464.5,-144 464.5,-144 654.5,-144 654.5,-144 660.5,-144 666.5,-150 666.5,-156 666.5,-156 666.5,-168 666.5,-168 666.5,-174 660.5,-180 654.5,-180"/>
<text text-anchor="middle" x="559.5" y="-165" font-family="sans" font-size="10.00">reads_fastqc</text>
<text text-anchor="middle" x="559.5" y="-154" font-family="sans" font-size="10.00">sample: GSM1102788_CD14_H3K36me3</text>
</g>
<!-- 4&#45;&gt;0 -->
<g id="edge4" class="edge">
<title>4&#45;&gt;0</title>
<path fill="none" stroke="grey" stroke-width="2" d="M585.83,-143.94C619.36,-123.15 679.75,-88.72 736.5,-72 901.24,-23.47 1108.63,-18.39 1192.14,-18.51"/>
<polygon fill="grey" stroke="grey" stroke-width="2" points="1192.38,-22.01 1202.39,-18.56 1192.41,-15.01 1192.38,-22.01"/>
</g>
<!-- 4&#45;&gt;1 -->
<g id="edge16" class="edge">
<title>4&#45;&gt;1</title>
<path fill="none" stroke="grey" stroke-width="2" d="M615.23,-143.97C651.77,-132.79 699.28,-118.27 735.3,-107.26"/>
<polygon fill="grey" stroke="grey" stroke-width="2" points="736.6,-110.52 745.14,-104.25 734.56,-103.83 736.6,-110.52"/>
</g>
<!-- 5 -->
<g id="node6" class="node">
<title>5</title>
<path fill="none" stroke="#56d86b" stroke-width="2" d="M880.5,-180C880.5,-180 696.5,-180 696.5,-180 690.5,-180 684.5,-174 684.5,-168 684.5,-168 684.5,-156 684.5,-156 684.5,-150 690.5,-144 696.5,-144 696.5,-144 880.5,-144 880.5,-144 886.5,-144 892.5,-150 892.5,-156 892.5,-156 892.5,-168 892.5,-168 892.5,-174 886.5,-180 880.5,-180"/>
<text text-anchor="middle" x="788.5" y="-165" font-family="sans" font-size="10.00">reads_fastqc</text>
<text text-anchor="middle" x="788.5" y="-154" font-family="sans" font-size="10.00">sample: GSM1102793_CD14_H3K4me1</text>
</g>
<!-- 5&#45;&gt;0 -->
<g id="edge5" class="edge">
<title>5&#45;&gt;0</title>
<path fill="none" stroke="grey" stroke-width="2" d="M841.69,-143.87C932.35,-114.68 1114.54,-56.02 1192.61,-30.88"/>
<polygon fill="grey" stroke="grey" stroke-width="2" points="1194.04,-34.1 1202.48,-27.7 1191.89,-27.43 1194.04,-34.1"/>
</g>
<!-- 5&#45;&gt;1 -->
<g id="edge17" class="edge">
<title>5&#45;&gt;1</title>
<path fill="none" stroke="grey" stroke-width="2" d="M788.5,-143.7C788.5,-135.98 788.5,-126.71 788.5,-118.11"/>
<polygon fill="grey" stroke="grey" stroke-width="2" points="792,-118.1 788.5,-108.1 785,-118.1 792,-118.1"/>
</g>
<!-- 6 -->
<g id="node7" class="node">
<title>6</title>
<path fill="none" stroke="#56d86b" stroke-width="2" d="M1106.5,-180C1106.5,-180 922.5,-180 922.5,-180 916.5,-180 910.5,-174 910.5,-168 910.5,-168 910.5,-156 910.5,-156 910.5,-150 916.5,-144 922.5,-144 922.5,-144 1106.5,-144 1106.5,-144 1112.5,-144 1118.5,-150 1118.5,-156 1118.5,-156 1118.5,-168 1118.5,-168 1118.5,-174 1112.5,-180 1106.5,-180"/>
<text text-anchor="middle" x="1014.5" y="-165" font-family="sans" font-size="10.00">reads_fastqc</text>
<text text-anchor="middle" x="1014.5" y="-154" font-family="sans" font-size="10.00">sample: GSM1102797_CD14_H3K4me3</text>
</g>
<!-- 6&#45;&gt;0 -->
<g id="edge6" class="edge">
<title>6&#45;&gt;0</title>
<path fill="none" stroke="grey" stroke-width="2" d="M1040.43,-143.87C1079.09,-118.34 1151.9,-70.25 1195.01,-41.78"/>
<polygon fill="grey" stroke="grey" stroke-width="2" points="1197.06,-44.62 1203.47,-36.19 1193.2,-38.78 1197.06,-44.62"/>
</g>
<!-- 6&#45;&gt;1 -->
<g id="edge18" class="edge">
<title>6&#45;&gt;1</title>
<path fill="none" stroke="grey" stroke-width="2" d="M959.5,-143.97C923.56,-132.83 876.86,-118.37 841.35,-107.37"/>
<polygon fill="grey" stroke="grey" stroke-width="2" points="842.24,-103.98 831.65,-104.37 840.17,-110.67 842.24,-103.98"/>
</g>
<!-- 7 -->
<g id="node8" class="node">
<title>7</title>
<path fill="none" stroke="#56d86b" stroke-width="2" d="M1310,-180C1310,-180 1149,-180 1149,-180 1143,-180 1137,-174 1137,-168 1137,-168 1137,-156 1137,-156 1137,-150 1143,-144 1149,-144 1149,-144 1310,-144 1310,-144 1316,-144 1322,-150 1322,-156 1322,-156 1322,-168 1322,-168 1322,-174 1316,-180 1310,-180"/>
<text text-anchor="middle" x="1229.5" y="-165" font-family="sans" font-size="10.00">reads_fastqc</text>
<text text-anchor="middle" x="1229.5" y="-154" font-family="sans" font-size="10.00">sample: GSM1102807_CD14_input</text>
</g>
<!-- 7&#45;&gt;0 -->
<g id="edge7" class="edge">
<title>7&#45;&gt;0</title>
<path fill="none" stroke="grey" stroke-width="2" d="M1229.5,-143.87C1229.5,-119.67 1229.5,-75.21 1229.5,-46.39"/>
<polygon fill="grey" stroke="grey" stroke-width="2" points="1233,-46.19 1229.5,-36.19 1226,-46.19 1233,-46.19"/>
</g>
<!-- 7&#45;&gt;1 -->
<g id="edge19" class="edge">
<title>7&#45;&gt;1</title>
<path fill="none" stroke="grey" stroke-width="2" d="M1136.94,-145.53C1133.76,-145.01 1130.6,-144.5 1127.5,-144 1026.6,-127.71 908.68,-109.45 841.87,-99.17"/>
<polygon fill="grey" stroke="grey" stroke-width="2" points="842.02,-95.66 831.6,-97.6 840.95,-102.57 842.02,-95.66"/>
</g>
<!-- 8 -->
<g id="node9" class="node">
<title>8</title>
<path fill="none" stroke="#56b1d8" stroke-width="2" d="M1344.5,-108C1344.5,-108 1292.5,-108 1292.5,-108 1286.5,-108 1280.5,-102 1280.5,-96 1280.5,-96 1280.5,-84 1280.5,-84 1280.5,-78 1286.5,-72 1292.5,-72 1292.5,-72 1344.5,-72 1344.5,-72 1350.5,-72 1356.5,-78 1356.5,-84 1356.5,-84 1356.5,-96 1356.5,-96 1356.5,-102 1350.5,-108 1344.5,-108"/>
<text text-anchor="middle" x="1318.5" y="-87.5" font-family="sans" font-size="10.00">bam_bigwig</text>
</g>
<!-- 8&#45;&gt;0 -->
<g id="edge8" class="edge">
<title>8&#45;&gt;0</title>
<path fill="none" stroke="grey" stroke-width="2" d="M1296.5,-71.7C1285.29,-62.88 1271.5,-52.03 1259.35,-42.47"/>
<polygon fill="grey" stroke="grey" stroke-width="2" points="1261.27,-39.54 1251.25,-36.1 1256.94,-45.04 1261.27,-39.54"/>
</g>
<!-- 9 -->
<g id="node10" class="node">
<title>9</title>
<path fill="none" stroke="#d88556" stroke-width="2" d="M1389.5,-180C1389.5,-180 1351.5,-180 1351.5,-180 1345.5,-180 1339.5,-174 1339.5,-168 1339.5,-168 1339.5,-156 1339.5,-156 1339.5,-150 1345.5,-144 1351.5,-144 1351.5,-144 1389.5,-144 1389.5,-144 1395.5,-144 1401.5,-150 1401.5,-156 1401.5,-156 1401.5,-168 1401.5,-168 1401.5,-174 1395.5,-180 1389.5,-180"/>
<text text-anchor="middle" x="1370.5" y="-159.5" font-family="sans" font-size="10.00">bam_sort</text>
</g>
<!-- 9&#45;&gt;8 -->
<g id="edge20" class="edge">
<title>9&#45;&gt;8</title>
<path fill="none" stroke="grey" stroke-width="2" d="M1357.65,-143.7C1351.47,-135.39 1343.96,-125.28 1337.18,-116.14"/>
<polygon fill="grey" stroke="grey" stroke-width="2" points="1339.98,-114.04 1331.21,-108.1 1334.36,-118.22 1339.98,-114.04"/>
</g>
<!-- 10 -->
<g id="node11" class="node">
<title>10</title>
<path fill="none" stroke="#56d8c9" stroke-width="2" d="M1124,-252C1124,-252 945,-252 945,-252 939,-252 933,-246 933,-240 933,-240 933,-228 933,-228 933,-222 939,-216 945,-216 945,-216 1124,-216 1124,-216 1130,-216 1136,-222 1136,-228 1136,-228 1136,-240 1136,-240 1136,-246 1130,-252 1124,-252"/>
<text text-anchor="middle" x="1034.5" y="-237" font-family="sans" font-size="10.00">align_reads_se</text>
<text text-anchor="middle" x="1034.5" y="-226" font-family="sans" font-size="10.00">sample: GSM1102782_CD14_H3K27ac</text>
</g>
<!-- 10&#45;&gt;9 -->
<g id="edge21" class="edge">
<title>10&#45;&gt;9</title>
<path fill="none" stroke="grey" stroke-width="2" d="M1136.21,-216.06C1206.96,-204.09 1293.78,-188.98 1329.51,-180.05"/>
<polygon fill="grey" stroke="grey" stroke-width="2" points="1330.52,-183.4 1339.24,-177.38 1328.67,-176.65 1330.52,-183.4"/>
</g>
<!-- 11 -->
<g id="node12" class="node">
<title>11</title>
<path fill="none" stroke="#9fd856" stroke-width="2" d="M1638.5,-324C1638.5,-324 1574.5,-324 1574.5,-324 1568.5,-324 1562.5,-318 1562.5,-312 1562.5,-312 1562.5,-300 1562.5,-300 1562.5,-294 1568.5,-288 1574.5,-288 1574.5,-288 1638.5,-288 1638.5,-288 1644.5,-288 1650.5,-294 1650.5,-300 1650.5,-300 1650.5,-312 1650.5,-312 1650.5,-318 1644.5,-324 1638.5,-324"/>
<text text-anchor="middle" x="1606.5" y="-303.5" font-family="sans" font-size="10.00">bowtie2_index</text>
</g>
<!-- 11&#45;&gt;10 -->
<g id="edge22" class="edge">
<title>11&#45;&gt;10</title>
<path fill="none" stroke="grey" stroke-width="2" d="M1562.48,-300.53C1481.92,-292.22 1305.17,-273.41 1146.04,-252.18"/>
<polygon fill="grey" stroke="grey" stroke-width="2" points="1146.44,-248.7 1136.07,-250.84 1145.51,-255.64 1146.44,-248.7"/>
</g>
<!-- 15 -->
<g id="node16" class="node">
<title>15</title>
<path fill="none" stroke="#56d8c9" stroke-width="2" d="M1355.5,-252C1355.5,-252 1165.5,-252 1165.5,-252 1159.5,-252 1153.5,-246 1153.5,-240 1153.5,-240 1153.5,-228 1153.5,-228 1153.5,-222 1159.5,-216 1165.5,-216 1165.5,-216 1355.5,-216 1355.5,-216 1361.5,-216 1367.5,-222 1367.5,-228 1367.5,-228 1367.5,-240 1367.5,-240 1367.5,-246 1361.5,-252 1355.5,-252"/>
<text text-anchor="middle" x="1260.5" y="-237" font-family="sans" font-size="10.00">align_reads_se</text>
<text text-anchor="middle" x="1260.5" y="-226" font-family="sans" font-size="10.00">sample: GSM1102785_CD14_H3K27me3</text>
</g>
<!-- 11&#45;&gt;15 -->
<g id="edge26" class="edge">
<title>11&#45;&gt;15</title>
<path fill="none" stroke="grey" stroke-width="2" d="M1562.33,-296.06C1510.23,-285.52 1422.19,-267.71 1354.6,-254.04"/>
<polygon fill="grey" stroke="grey" stroke-width="2" points="1355.27,-250.6 1344.78,-252.05 1353.89,-257.46 1355.27,-250.6"/>
</g>
<!-- 18 -->
<g id="node19" class="node">
<title>18</title>
<path fill="none" stroke="#56d8c9" stroke-width="2" d="M1587.5,-252C1587.5,-252 1397.5,-252 1397.5,-252 1391.5,-252 1385.5,-246 1385.5,-240 1385.5,-240 1385.5,-228 1385.5,-228 1385.5,-222 1391.5,-216 1397.5,-216 1397.5,-216 1587.5,-216 1587.5,-216 1593.5,-216 1599.5,-222 1599.5,-228 1599.5,-228 1599.5,-240 1599.5,-240 1599.5,-246 1593.5,-252 1587.5,-252"/>
<text text-anchor="middle" x="1492.5" y="-237" font-family="sans" font-size="10.00">align_reads_se</text>
<text text-anchor="middle" x="1492.5" y="-226" font-family="sans" font-size="10.00">sample: GSM1102788_CD14_H3K36me3</text>
</g>
<!-- 11&#45;&gt;18 -->
<g id="edge29" class="edge">
<title>11&#45;&gt;18</title>
<path fill="none" stroke="grey" stroke-width="2" d="M1578.61,-287.88C1563.71,-278.72 1545.17,-267.34 1529.12,-257.48"/>
<polygon fill="grey" stroke="grey" stroke-width="2" points="1530.85,-254.44 1520.49,-252.19 1527.19,-260.41 1530.85,-254.44"/>
</g>
<!-- 21 -->
<g id="node22" class="node">
<title>21</title>
<path fill="none" stroke="#56d8c9" stroke-width="2" d="M1813.5,-252C1813.5,-252 1629.5,-252 1629.5,-252 1623.5,-252 1617.5,-246 1617.5,-240 1617.5,-240 1617.5,-228 1617.5,-228 1617.5,-222 1623.5,-216 1629.5,-216 1629.5,-216 1813.5,-216 1813.5,-216 1819.5,-216 1825.5,-222 1825.5,-228 1825.5,-228 1825.5,-240 1825.5,-240 1825.5,-246 1819.5,-252 1813.5,-252"/>
<text text-anchor="middle" x="1721.5" y="-237" font-family="sans" font-size="10.00">align_reads_se</text>
<text text-anchor="middle" x="1721.5" y="-226" font-family="sans" font-size="10.00">sample: GSM1102793_CD14_H3K4me1</text>
</g>
<!-- 11&#45;&gt;21 -->
<g id="edge32" class="edge">
<title>11&#45;&gt;21</title>
<path fill="none" stroke="grey" stroke-width="2" d="M1634.63,-287.88C1649.67,-278.72 1668.37,-267.34 1684.56,-257.48"/>
<polygon fill="grey" stroke="grey" stroke-width="2" points="1686.54,-260.38 1693.26,-252.19 1682.9,-254.4 1686.54,-260.38"/>
</g>
<!-- 24 -->
<g id="node25" class="node">
<title>24</title>
<path fill="none" stroke="#56d8c9" stroke-width="2" d="M2039.5,-252C2039.5,-252 1855.5,-252 1855.5,-252 1849.5,-252 1843.5,-246 1843.5,-240 1843.5,-240 1843.5,-228 1843.5,-228 1843.5,-222 1849.5,-216 1855.5,-216 1855.5,-216 2039.5,-216 2039.5,-216 2045.5,-216 2051.5,-222 2051.5,-228 2051.5,-228 2051.5,-240 2051.5,-240 2051.5,-246 2045.5,-252 2039.5,-252"/>
<text text-anchor="middle" x="1947.5" y="-237" font-family="sans" font-size="10.00">align_reads_se</text>
<text text-anchor="middle" x="1947.5" y="-226" font-family="sans" font-size="10.00">sample: GSM1102797_CD14_H3K4me3</text>
</g>
<!-- 11&#45;&gt;24 -->
<g id="edge35" class="edge">
<title>11&#45;&gt;24</title>
<path fill="none" stroke="grey" stroke-width="2" d="M1650.73,-295.92C1702.07,-285.38 1788.15,-267.71 1854.42,-254.11"/>
<polygon fill="grey" stroke="grey" stroke-width="2" points="1855.37,-257.49 1864.46,-252.05 1853.96,-250.63 1855.37,-257.49"/>
</g>
<!-- 27 -->
<g id="node28" class="node">
<title>27</title>
<path fill="none" stroke="#56d8c9" stroke-width="2" d="M2243,-252C2243,-252 2082,-252 2082,-252 2076,-252 2070,-246 2070,-240 2070,-240 2070,-228 2070,-228 2070,-222 2076,-216 2082,-216 2082,-216 2243,-216 2243,-216 2249,-216 2255,-222 2255,-228 2255,-228 2255,-240 2255,-240 2255,-246 2249,-252 2243,-252"/>
<text text-anchor="middle" x="2162.5" y="-237" font-family="sans" font-size="10.00">align_reads_se</text>
<text text-anchor="middle" x="2162.5" y="-226" font-family="sans" font-size="10.00">sample: GSM1102807_CD14_input</text>
</g>
<!-- 11&#45;&gt;27 -->
<g id="edge38" class="edge">
<title>11&#45;&gt;27</title>
<path fill="none" stroke="grey" stroke-width="2" d="M1650.74,-300.56C1730.29,-292.42 1903,-274.04 2059.67,-252.08"/>
<polygon fill="grey" stroke="grey" stroke-width="2" points="2060.55,-255.49 2069.96,-250.63 2059.57,-248.56 2060.55,-255.49"/>
</g>
<!-- 12 -->
<g id="node13" class="node">
<title>12</title>
<path fill="none" stroke="#70d856" stroke-width="2" d="M1652.5,-396C1652.5,-396 1560.5,-396 1560.5,-396 1554.5,-396 1548.5,-390 1548.5,-384 1548.5,-384 1548.5,-372 1548.5,-372 1548.5,-366 1554.5,-360 1560.5,-360 1560.5,-360 1652.5,-360 1652.5,-360 1658.5,-360 1664.5,-366 1664.5,-372 1664.5,-372 1664.5,-384 1664.5,-384 1664.5,-390 1658.5,-396 1652.5,-396"/>
<text text-anchor="middle" x="1606.5" y="-381" font-family="sans" font-size="10.00">download_reference</text>
<text text-anchor="middle" x="1606.5" y="-370" font-family="sans" font-size="10.00">genome: hg19</text>
</g>
<!-- 12&#45;&gt;11 -->
<g id="edge23" class="edge">
<title>12&#45;&gt;11</title>
<path fill="none" stroke="grey" stroke-width="2" d="M1606.5,-359.7C1606.5,-351.98 1606.5,-342.71 1606.5,-334.11"/>
<polygon fill="grey" stroke="grey" stroke-width="2" points="1610,-334.1 1606.5,-324.1 1603,-334.1 1610,-334.1"/>
</g>
<!-- 13 -->
<g id="node14" class="node">
<title>13</title>
<path fill="none" stroke="#56b1d8" stroke-width="2" d="M1450.5,-108C1450.5,-108 1398.5,-108 1398.5,-108 1392.5,-108 1386.5,-102 1386.5,-96 1386.5,-96 1386.5,-84 1386.5,-84 1386.5,-78 1392.5,-72 1398.5,-72 1398.5,-72 1450.5,-72 1450.5,-72 1456.5,-72 1462.5,-78 1462.5,-84 1462.5,-84 1462.5,-96 1462.5,-96 1462.5,-102 1456.5,-108 1450.5,-108"/>
<text text-anchor="middle" x="1424.5" y="-87.5" font-family="sans" font-size="10.00">bam_bigwig</text>
</g>
<!-- 13&#45;&gt;0 -->
<g id="edge9" class="edge">
<title>13&#45;&gt;0</title>
<path fill="none" stroke="grey" stroke-width="2" d="M1386.44,-75.34C1351.74,-62.88 1300.79,-44.59 1266.44,-32.26"/>
<polygon fill="grey" stroke="grey" stroke-width="2" points="1267.38,-28.88 1256.79,-28.8 1265.02,-35.47 1267.38,-28.88"/>
</g>
<!-- 14 -->
<g id="node15" class="node">
<title>14</title>
<path fill="none" stroke="#d88556" stroke-width="2" d="M1469.5,-180C1469.5,-180 1431.5,-180 1431.5,-180 1425.5,-180 1419.5,-174 1419.5,-168 1419.5,-168 1419.5,-156 1419.5,-156 1419.5,-150 1425.5,-144 1431.5,-144 1431.5,-144 1469.5,-144 1469.5,-144 1475.5,-144 1481.5,-150 1481.5,-156 1481.5,-156 1481.5,-168 1481.5,-168 1481.5,-174 1475.5,-180 1469.5,-180"/>
<text text-anchor="middle" x="1450.5" y="-159.5" font-family="sans" font-size="10.00">bam_sort</text>
</g>
<!-- 14&#45;&gt;13 -->
<g id="edge24" class="edge">
<title>14&#45;&gt;13</title>
<path fill="none" stroke="grey" stroke-width="2" d="M1444.07,-143.7C1441.14,-135.81 1437.61,-126.3 1434.36,-117.55"/>
<polygon fill="grey" stroke="grey" stroke-width="2" points="1437.62,-116.26 1430.85,-108.1 1431.05,-118.7 1437.62,-116.26"/>
</g>
<!-- 15&#45;&gt;14 -->
<g id="edge25" class="edge">
<title>15&#45;&gt;14</title>
<path fill="none" stroke="grey" stroke-width="2" d="M1311.13,-215.99C1338.06,-206.74 1371.89,-194.8 1409.49,-180.29"/>
<polygon fill="grey" stroke="grey" stroke-width="2" points="1411.08,-183.43 1419.13,-176.55 1408.54,-176.91 1411.08,-183.43"/>
</g>
<!-- 16 -->
<g id="node17" class="node">
<title>16</title>
<path fill="none" stroke="#56b1d8" stroke-width="2" d="M1550.5,-108C1550.5,-108 1498.5,-108 1498.5,-108 1492.5,-108 1486.5,-102 1486.5,-96 1486.5,-96 1486.5,-84 1486.5,-84 1486.5,-78 1492.5,-72 1498.5,-72 1498.5,-72 1550.5,-72 1550.5,-72 1556.5,-72 1562.5,-78 1562.5,-84 1562.5,-84 1562.5,-96 1562.5,-96 1562.5,-102 1556.5,-108 1550.5,-108"/>
<text text-anchor="middle" x="1524.5" y="-87.5" font-family="sans" font-size="10.00">bam_bigwig</text>
</g>
<!-- 16&#45;&gt;0 -->
<g id="edge10" class="edge">
<title>16&#45;&gt;0</title>
<path fill="none" stroke="grey" stroke-width="2" d="M1486.42,-76.31C1481.42,-74.78 1476.35,-73.31 1471.5,-72 1399.53,-52.62 1314.11,-35.2 1266.43,-25.96"/>
<polygon fill="grey" stroke="grey" stroke-width="2" points="1267.04,-22.51 1256.56,-24.06 1265.72,-29.38 1267.04,-22.51"/>
</g>
<!-- 17 -->
<g id="node18" class="node">
<title>17</title>
<path fill="none" stroke="#d88556" stroke-width="2" d="M1549.5,-180C1549.5,-180 1511.5,-180 1511.5,-180 1505.5,-180 1499.5,-174 1499.5,-168 1499.5,-168 1499.5,-156 1499.5,-156 1499.5,-150 1505.5,-144 1511.5,-144 1511.5,-144 1549.5,-144 1549.5,-144 1555.5,-144 1561.5,-150 1561.5,-156 1561.5,-156 1561.5,-168 1561.5,-168 1561.5,-174 1555.5,-180 1549.5,-180"/>
<text text-anchor="middle" x="1530.5" y="-159.5" font-family="sans" font-size="10.00">bam_sort</text>
</g>
<!-- 17&#45;&gt;16 -->
<g id="edge27" class="edge">
<title>17&#45;&gt;16</title>
<path fill="none" stroke="grey" stroke-width="2" d="M1529.02,-143.7C1528.36,-135.98 1527.56,-126.71 1526.82,-118.11"/>
<polygon fill="grey" stroke="grey" stroke-width="2" points="1530.31,-117.77 1525.97,-108.1 1523.33,-118.37 1530.31,-117.77"/>
</g>
<!-- 18&#45;&gt;17 -->
<g id="edge28" class="edge">
<title>18&#45;&gt;17</title>
<path fill="none" stroke="grey" stroke-width="2" d="M1501.89,-215.7C1506.26,-207.64 1511.56,-197.89 1516.4,-188.98"/>
<polygon fill="grey" stroke="grey" stroke-width="2" points="1519.52,-190.56 1521.21,-180.1 1513.37,-187.22 1519.52,-190.56"/>
</g>
<!-- 19 -->
<g id="node20" class="node">
<title>19</title>
<path fill="none" stroke="#56b1d8" stroke-width="2" d="M1677.5,-108C1677.5,-108 1625.5,-108 1625.5,-108 1619.5,-108 1613.5,-102 1613.5,-96 1613.5,-96 1613.5,-84 1613.5,-84 1613.5,-78 1619.5,-72 1625.5,-72 1625.5,-72 1677.5,-72 1677.5,-72 1683.5,-72 1689.5,-78 1689.5,-84 1689.5,-84 1689.5,-96 1689.5,-96 1689.5,-102 1683.5,-108 1677.5,-108"/>
<text text-anchor="middle" x="1651.5" y="-87.5" font-family="sans" font-size="10.00">bam_bigwig</text>
</g>
<!-- 19&#45;&gt;0 -->
<g id="edge11" class="edge">
<title>19&#45;&gt;0</title>
<path fill="none" stroke="grey" stroke-width="2" d="M1613.34,-80.44C1600.12,-77.59 1585.19,-74.51 1571.5,-72 1461.17,-51.74 1329.87,-32.84 1266.86,-24.1"/>
<polygon fill="grey" stroke="grey" stroke-width="2" points="1267.02,-20.58 1256.63,-22.68 1266.06,-27.52 1267.02,-20.58"/>
</g>
<!-- 20 -->
<g id="node21" class="node">
<title>20</title>
<path fill="none" stroke="#d88556" stroke-width="2" d="M1703.5,-180C1703.5,-180 1665.5,-180 1665.5,-180 1659.5,-180 1653.5,-174 1653.5,-168 1653.5,-168 1653.5,-156 1653.5,-156 1653.5,-150 1659.5,-144 1665.5,-144 1665.5,-144 1703.5,-144 1703.5,-144 1709.5,-144 1715.5,-150 1715.5,-156 1715.5,-156 1715.5,-168 1715.5,-168 1715.5,-174 1709.5,-180 1703.5,-180"/>
<text text-anchor="middle" x="1684.5" y="-159.5" font-family="sans" font-size="10.00">bam_sort</text>
</g>
<!-- 20&#45;&gt;19 -->
<g id="edge30" class="edge">
<title>20&#45;&gt;19</title>
<path fill="none" stroke="grey" stroke-width="2" d="M1676.34,-143.7C1672.59,-135.73 1668.05,-126.1 1663.88,-117.26"/>
<polygon fill="grey" stroke="grey" stroke-width="2" points="1666.99,-115.66 1659.56,-108.1 1660.66,-118.64 1666.99,-115.66"/>
</g>
<!-- 21&#45;&gt;20 -->
<g id="edge31" class="edge">
<title>21&#45;&gt;20</title>
<path fill="none" stroke="grey" stroke-width="2" d="M1712.35,-215.7C1708.1,-207.64 1702.94,-197.89 1698.23,-188.98"/>
<polygon fill="grey" stroke="grey" stroke-width="2" points="1701.31,-187.31 1693.54,-180.1 1695.12,-190.58 1701.31,-187.31"/>
</g>
<!-- 22 -->
<g id="node23" class="node">
<title>22</title>
<path fill="none" stroke="#56b1d8" stroke-width="2" d="M1853.5,-108C1853.5,-108 1801.5,-108 1801.5,-108 1795.5,-108 1789.5,-102 1789.5,-96 1789.5,-96 1789.5,-84 1789.5,-84 1789.5,-78 1795.5,-72 1801.5,-72 1801.5,-72 1853.5,-72 1853.5,-72 1859.5,-72 1865.5,-78 1865.5,-84 1865.5,-84 1865.5,-96 1865.5,-96 1865.5,-102 1859.5,-108 1853.5,-108"/>
<text text-anchor="middle" x="1827.5" y="-87.5" font-family="sans" font-size="10.00">bam_bigwig</text>
</g>
<!-- 22&#45;&gt;0 -->
<g id="edge12" class="edge">
<title>22&#45;&gt;0</title>
<path fill="none" stroke="grey" stroke-width="2" d="M1789.42,-83.79C1763.75,-80.33 1729.11,-75.75 1698.5,-72 1537.95,-52.35 1346.16,-31.49 1266.75,-22.97"/>
<polygon fill="grey" stroke="grey" stroke-width="2" points="1267.06,-19.49 1256.75,-21.9 1266.32,-26.45 1267.06,-19.49"/>
</g>
<!-- 23 -->
<g id="node24" class="node">
<title>23</title>
<path fill="none" stroke="#d88556" stroke-width="2" d="M1906.5,-180C1906.5,-180 1868.5,-180 1868.5,-180 1862.5,-180 1856.5,-174 1856.5,-168 1856.5,-168 1856.5,-156 1856.5,-156 1856.5,-150 1862.5,-144 1868.5,-144 1868.5,-144 1906.5,-144 1906.5,-144 1912.5,-144 1918.5,-150 1918.5,-156 1918.5,-156 1918.5,-168 1918.5,-168 1918.5,-174 1912.5,-180 1906.5,-180"/>
<text text-anchor="middle" x="1887.5" y="-159.5" font-family="sans" font-size="10.00">bam_sort</text>
</g>
<!-- 23&#45;&gt;22 -->
<g id="edge33" class="edge">
<title>23&#45;&gt;22</title>
<path fill="none" stroke="grey" stroke-width="2" d="M1872.67,-143.7C1865.48,-135.3 1856.7,-125.07 1848.81,-115.86"/>
<polygon fill="grey" stroke="grey" stroke-width="2" points="1851.33,-113.42 1842.16,-108.1 1846.01,-117.97 1851.33,-113.42"/>
</g>
<!-- 24&#45;&gt;23 -->
<g id="edge34" class="edge">
<title>24&#45;&gt;23</title>
<path fill="none" stroke="grey" stroke-width="2" d="M1932.67,-215.7C1925.48,-207.3 1916.7,-197.07 1908.81,-187.86"/>
<polygon fill="grey" stroke="grey" stroke-width="2" points="1911.33,-185.42 1902.16,-180.1 1906.01,-189.97 1911.33,-185.42"/>
</g>
<!-- 25 -->
<g id="node26" class="node">
<title>25</title>
<path fill="none" stroke="#56b1d8" stroke-width="2" d="M2049.5,-108C2049.5,-108 1997.5,-108 1997.5,-108 1991.5,-108 1985.5,-102 1985.5,-96 1985.5,-96 1985.5,-84 1985.5,-84 1985.5,-78 1991.5,-72 1997.5,-72 1997.5,-72 2049.5,-72 2049.5,-72 2055.5,-72 2061.5,-78 2061.5,-84 2061.5,-84 2061.5,-96 2061.5,-96 2061.5,-102 2055.5,-108 2049.5,-108"/>
<text text-anchor="middle" x="2023.5" y="-87.5" font-family="sans" font-size="10.00">bam_bigwig</text>
</g>
<!-- 25&#45;&gt;0 -->
<g id="edge13" class="edge">
<title>25&#45;&gt;0</title>
<path fill="none" stroke="grey" stroke-width="2" d="M1985.26,-84.3C1955.18,-80.68 1912.2,-75.7 1874.5,-72 1643.62,-49.35 1365.59,-28.76 1266.65,-21.64"/>
<polygon fill="grey" stroke="grey" stroke-width="2" points="1266.79,-18.14 1256.56,-20.92 1266.29,-25.12 1266.79,-18.14"/>
</g>
<!-- 26 -->
<g id="node27" class="node">
<title>26</title>
<path fill="none" stroke="#d88556" stroke-width="2" d="M2112.5,-180C2112.5,-180 2074.5,-180 2074.5,-180 2068.5,-180 2062.5,-174 2062.5,-168 2062.5,-168 2062.5,-156 2062.5,-156 2062.5,-150 2068.5,-144 2074.5,-144 2074.5,-144 2112.5,-144 2112.5,-144 2118.5,-144 2124.5,-150 2124.5,-156 2124.5,-156 2124.5,-168 2124.5,-168 2124.5,-174 2118.5,-180 2112.5,-180"/>
<text text-anchor="middle" x="2093.5" y="-159.5" font-family="sans" font-size="10.00">bam_sort</text>
</g>
<!-- 26&#45;&gt;25 -->
<g id="edge36" class="edge">
<title>26&#45;&gt;25</title>
<path fill="none" stroke="grey" stroke-width="2" d="M2076.2,-143.7C2067.64,-135.14 2057.16,-124.66 2047.8,-115.3"/>
<polygon fill="grey" stroke="grey" stroke-width="2" points="2050.15,-112.7 2040.6,-108.1 2045.2,-117.65 2050.15,-112.7"/>
</g>
<!-- 27&#45;&gt;26 -->
<g id="edge37" class="edge">
<title>27&#45;&gt;26</title>
<path fill="none" stroke="grey" stroke-width="2" d="M2145.44,-215.7C2137,-207.14 2126.68,-196.66 2117.46,-187.3"/>
<polygon fill="grey" stroke="grey" stroke-width="2" points="2119.87,-184.77 2110.36,-180.1 2114.89,-189.68 2119.87,-184.77"/>
</g>
</g>
</svg>
