<?xml version="1.0" encoding="UTF-8" standalone="no"?>
<!DOCTYPE svg PUBLIC "-//W3C//DTD SVG 1.1//EN"
 "http://www.w3.org/Graphics/SVG/1.1/DTD/svg11.dtd">
<!-- Generated by graphviz version 2.47.2 (20210527.1257)
 -->
<!-- Title: snakemake_dag Pages: 1 -->
<svg width="2319pt" height="404pt"
 viewBox="0.00 0.00 2319.00 404.00" xmlns="http://www.w3.org/2000/svg" xmlns:xlink="http://www.w3.org/1999/xlink">
<g id="graph0" class="graph" transform="scale(1 1) rotate(0) translate(4 400)">
<title>snakemake_dag</title>
<polygon fill="white" stroke="transparent" points="-4,4 -4,-400 2315,-400 2315,4 -4,4"/>
<!-- 0 -->
<g id="node1" class="node">
<title>0</title>
<path fill="none" stroke="#68d856" stroke-width="2" d="M1380.5,-36C1380.5,-36 1350.5,-36 1350.5,-36 1344.5,-36 1338.5,-30 1338.5,-24 1338.5,-24 1338.5,-12 1338.5,-12 1338.5,-6 1344.5,0 1350.5,0 1350.5,0 1380.5,0 1380.5,0 1386.5,0 1392.5,-6 1392.5,-12 1392.5,-12 1392.5,-24 1392.5,-24 1392.5,-30 1386.5,-36 1380.5,-36"/>
<text text-anchor="middle" x="1365.5" y="-15.5" font-family="sans" font-size="10.00">all</text>
</g>
<!-- 1 -->
<g id="node2" class="node">
<title>1</title>
<path fill="none" stroke="#8fd856" stroke-width="2" stroke-dasharray="5,2" d="M819.5,-108C819.5,-108 757.5,-108 757.5,-108 751.5,-108 745.5,-102 745.5,-96 745.5,-96 745.5,-84 745.5,-84 745.5,-78 751.5,-72 757.5,-72 757.5,-72 819.5,-72 819.5,-72 825.5,-72 831.5,-78 831.5,-84 831.5,-84 831.5,-96 831.5,-96 831.5,-102 825.5,-108 819.5,-108"/>
<text text-anchor="middle" x="788.5" y="-87.5" font-family="sans" font-size="10.00">reads_multiqc</text>
</g>
<!-- 1&#45;&gt;0 -->
<g id="edge1" class="edge">
<title>1&#45;&gt;0</title>
<path fill="none" stroke="grey" stroke-width="2" d="M831.87,-83.74C941.09,-70.49 1226.06,-35.92 1328.31,-23.51"/>
<polygon fill="grey" stroke="grey" stroke-width="2" points="1328.95,-26.96 1338.46,-22.28 1328.11,-20.01 1328.95,-26.96"/>
</g>
<!-- 2 -->
<g id="node3" class="node">
<title>2</title>
<path fill="none" stroke="#567bd8" stroke-width="2" stroke-dasharray="5,2" d="M191,-180C191,-180 12,-180 12,-180 6,-180 0,-174 0,-168 0,-168 0,-156 0,-156 0,-150 6,-144 12,-144 12,-144 191,-144 191,-144 197,-144 203,-150 203,-156 203,-156 203,-168 203,-168 203,-174 197,-180 191,-180"/>
<text text-anchor="middle" x="101.5" y="-165" font-family="sans" font-size="10.00">reads_fastqc</text>
<text text-anchor="middle" x="101.5" y="-154" font-family="sans" font-size="10.00">sample: GSM1102782_CD14_H3K27ac</text>
</g>
<!-- 2&#45;&gt;0 -->
<g id="edge2" class="edge">
<title>2&#45;&gt;0</title>
<path fill="none" stroke="grey" stroke-width="2" d="M162.37,-143.94C238.96,-123.22 374.85,-88.96 493.5,-72 814.14,-26.17 1206.64,-19.92 1327.98,-19.11"/>
<polygon fill="grey" stroke="grey" stroke-width="2" points="1328.23,-22.61 1338.21,-19.05 1328.19,-15.61 1328.23,-22.61"/>
</g>
<!-- 2&#45;&gt;1 -->
<g id="edge20" class="edge">
<title>2&#45;&gt;1</title>
<path fill="none" stroke="grey" stroke-width="2" d="M203.06,-145.07C205.9,-144.7 208.72,-144.34 211.5,-144 403.83,-120.33 633.42,-102.27 735.3,-94.78"/>
<polygon fill="grey" stroke="grey" stroke-width="2" points="735.62,-98.27 745.33,-94.05 735.11,-91.29 735.62,-98.27"/>
</g>
<!-- 3 -->
<g id="node4" class="node">
<title>3</title>
<path fill="none" stroke="#567bd8" stroke-width="2" stroke-dasharray="5,2" d="M422.5,-180C422.5,-180 232.5,-180 232.5,-180 226.5,-180 220.5,-174 220.5,-168 220.5,-168 220.5,-156 220.5,-156 220.5,-150 226.5,-144 232.5,-144 232.5,-144 422.5,-144 422.5,-144 428.5,-144 434.5,-150 434.5,-156 434.5,-156 434.5,-168 434.5,-168 434.5,-174 428.5,-180 422.5,-180"/>
<text text-anchor="middle" x="327.5" y="-165" font-family="sans" font-size="10.00">reads_fastqc</text>
<text text-anchor="middle" x="327.5" y="-154" font-family="sans" font-size="10.00">sample: GSM1102785_CD14_H3K27me3</text>
</g>
<!-- 3&#45;&gt;0 -->
<g id="edge3" class="edge">
<title>3&#45;&gt;0</title>
<path fill="none" stroke="grey" stroke-width="2" d="M376.96,-143.95C439.25,-123.25 549.93,-89 647.5,-72 904.94,-27.15 1220.77,-20.21 1327.91,-19.17"/>
<polygon fill="grey" stroke="grey" stroke-width="2" points="1328.23,-22.67 1338.2,-19.08 1328.17,-15.67 1328.23,-22.67"/>
</g>
<!-- 3&#45;&gt;1 -->
<g id="edge21" class="edge">
<title>3&#45;&gt;1</title>
<path fill="none" stroke="grey" stroke-width="2" d="M434.71,-144.72C528.97,-130.41 662.21,-110.18 735.33,-99.07"/>
<polygon fill="grey" stroke="grey" stroke-width="2" points="735.88,-102.53 745.24,-97.57 734.83,-95.61 735.88,-102.53"/>
</g>
<!-- 4 -->
<g id="node5" class="node">
<title>4</title>
<path fill="none" stroke="#567bd8" stroke-width="2" stroke-dasharray="5,2" d="M654.5,-180C654.5,-180 464.5,-180 464.5,-180 458.5,-180 452.5,-174 452.5,-168 452.5,-168 452.5,-156 452.5,-156 452.5,-150 458.5,-144 464.5,-144 464.5,-144 654.5,-144 654.5,-144 660.5,-144 666.5,-150 666.5,-156 666.5,-156 666.5,-168 666.5,-168 666.5,-174 660.5,-180 654.5,-180"/>
<text text-anchor="middle" x="559.5" y="-165" font-family="sans" font-size="10.00">reads_fastqc</text>
<text text-anchor="middle" x="559.5" y="-154" font-family="sans" font-size="10.00">sample: GSM1102788_CD14_H3K36me3</text>
</g>
<!-- 4&#45;&gt;0 -->
<g id="edge4" class="edge">
<title>4&#45;&gt;0</title>
<path fill="none" stroke="grey" stroke-width="2" d="M585.48,-143.91C618.88,-122.92 679.4,-88.11 736.5,-72 848.88,-40.29 1210.01,-24.65 1327.89,-20.3"/>
<polygon fill="grey" stroke="grey" stroke-width="2" points="1328.34,-23.78 1338.21,-19.92 1328.09,-16.79 1328.34,-23.78"/>
</g>
<!-- 4&#45;&gt;1 -->
<g id="edge22" class="edge">
<title>4&#45;&gt;1</title>
<path fill="none" stroke="grey" stroke-width="2" d="M615.23,-143.97C651.77,-132.79 699.28,-118.27 735.3,-107.26"/>
<polygon fill="grey" stroke="grey" stroke-width="2" points="736.6,-110.52 745.14,-104.25 734.56,-103.83 736.6,-110.52"/>
</g>
<!-- 5 -->
<g id="node6" class="node">
<title>5</title>
<path fill="none" stroke="#567bd8" stroke-width="2" stroke-dasharray="5,2" d="M880.5,-180C880.5,-180 696.5,-180 696.5,-180 690.5,-180 684.5,-174 684.5,-168 684.5,-168 684.5,-156 684.5,-156 684.5,-150 690.5,-144 696.5,-144 696.5,-144 880.5,-144 880.5,-144 886.5,-144 892.5,-150 892.5,-156 892.5,-156 892.5,-168 892.5,-168 892.5,-174 886.5,-180 880.5,-180"/>
<text text-anchor="middle" x="788.5" y="-165" font-family="sans" font-size="10.00">reads_fastqc</text>
<text text-anchor="middle" x="788.5" y="-154" font-family="sans" font-size="10.00">sample: GSM1102793_CD14_H3K4me1</text>
</g>
<!-- 5&#45;&gt;0 -->
<g id="edge5" class="edge">
<title>5&#45;&gt;0</title>
<path fill="none" stroke="grey" stroke-width="2" d="M838.76,-143.96C896.94,-124.66 995.85,-93.16 1082.5,-72 1169.68,-50.71 1273.76,-33.21 1328.17,-24.66"/>
<polygon fill="grey" stroke="grey" stroke-width="2" points="1329.03,-28.07 1338.37,-23.07 1327.95,-21.15 1329.03,-28.07"/>
</g>
<!-- 5&#45;&gt;1 -->
<g id="edge23" class="edge">
<title>5&#45;&gt;1</title>
<path fill="none" stroke="grey" stroke-width="2" d="M788.5,-143.7C788.5,-135.98 788.5,-126.71 788.5,-118.11"/>
<polygon fill="grey" stroke="grey" stroke-width="2" points="792,-118.1 788.5,-108.1 785,-118.1 792,-118.1"/>
</g>
<!-- 6 -->
<g id="node7" class="node">
<title>6</title>
<path fill="none" stroke="#567bd8" stroke-width="2" stroke-dasharray="5,2" d="M1106.5,-180C1106.5,-180 922.5,-180 922.5,-180 916.5,-180 910.5,-174 910.5,-168 910.5,-168 910.5,-156 910.5,-156 910.5,-150 916.5,-144 922.5,-144 922.5,-144 1106.5,-144 1106.5,-144 1112.5,-144 1118.5,-150 1118.5,-156 1118.5,-156 1118.5,-168 1118.5,-168 1118.5,-174 1112.5,-180 1106.5,-180"/>
<text text-anchor="middle" x="1014.5" y="-165" font-family="sans" font-size="10.00">reads_fastqc</text>
<text text-anchor="middle" x="1014.5" y="-154" font-family="sans" font-size="10.00">sample: GSM1102797_CD14_H3K4me3</text>
</g>
<!-- 6&#45;&gt;0 -->
<g id="edge6" class="edge">
<title>6&#45;&gt;0</title>
<path fill="none" stroke="grey" stroke-width="2" d="M1035.07,-143.68C1059.92,-123.6 1103.76,-90.85 1146.5,-72 1207.14,-45.26 1283.43,-30.7 1328.1,-23.91"/>
<polygon fill="grey" stroke="grey" stroke-width="2" points="1328.83,-27.34 1338.21,-22.42 1327.81,-20.42 1328.83,-27.34"/>
</g>
<!-- 6&#45;&gt;1 -->
<g id="edge24" class="edge">
<title>6&#45;&gt;1</title>
<path fill="none" stroke="grey" stroke-width="2" d="M959.5,-143.97C923.56,-132.83 876.86,-118.37 841.35,-107.37"/>
<polygon fill="grey" stroke="grey" stroke-width="2" points="842.24,-103.98 831.65,-104.37 840.17,-110.67 842.24,-103.98"/>
</g>
<!-- 7 -->
<g id="node8" class="node">
<title>7</title>
<path fill="none" stroke="#567bd8" stroke-width="2" stroke-dasharray="5,2" d="M1310,-180C1310,-180 1149,-180 1149,-180 1143,-180 1137,-174 1137,-168 1137,-168 1137,-156 1137,-156 1137,-150 1143,-144 1149,-144 1149,-144 1310,-144 1310,-144 1316,-144 1322,-150 1322,-156 1322,-156 1322,-168 1322,-168 1322,-174 1316,-180 1310,-180"/>
<text text-anchor="middle" x="1229.5" y="-165" font-family="sans" font-size="10.00">reads_fastqc</text>
<text text-anchor="middle" x="1229.5" y="-154" font-family="sans" font-size="10.00">sample: GSM1102807_CD14_input</text>
</g>
<!-- 7&#45;&gt;0 -->
<g id="edge7" class="edge">
<title>7&#45;&gt;0</title>
<path fill="none" stroke="grey" stroke-width="2" d="M1193.47,-143.81C1179.58,-135.16 1165.2,-123.24 1157.5,-108 1150.28,-93.72 1147.68,-84.63 1157.5,-72 1178.24,-45.31 1274.03,-29.83 1328.09,-23.08"/>
<polygon fill="grey" stroke="grey" stroke-width="2" points="1328.81,-26.52 1338.32,-21.84 1327.97,-19.57 1328.81,-26.52"/>
</g>
<!-- 7&#45;&gt;1 -->
<g id="edge25" class="edge">
<title>7&#45;&gt;1</title>
<path fill="none" stroke="grey" stroke-width="2" d="M1136.94,-145.53C1133.76,-145.01 1130.6,-144.5 1127.5,-144 1026.6,-127.71 908.68,-109.45 841.87,-99.17"/>
<polygon fill="grey" stroke="grey" stroke-width="2" points="842.02,-95.66 831.6,-97.6 840.95,-102.57 842.02,-95.66"/>
</g>
<!-- 8 -->
<g id="node9" class="node">
<title>8</title>
<path fill="none" stroke="#56d86b" stroke-width="2" stroke-dasharray="5,2" d="M1306.5,-108C1306.5,-108 1254.5,-108 1254.5,-108 1248.5,-108 1242.5,-102 1242.5,-96 1242.5,-96 1242.5,-84 1242.5,-84 1242.5,-78 1248.5,-72 1254.5,-72 1254.5,-72 1306.5,-72 1306.5,-72 1312.5,-72 1318.5,-78 1318.5,-84 1318.5,-84 1318.5,-96 1318.5,-96 1318.5,-102 1312.5,-108 1306.5,-108"/>
<text text-anchor="middle" x="1280.5" y="-87.5" font-family="sans" font-size="10.00">bam_bigwig</text>
</g>
<!-- 8&#45;&gt;0 -->
<g id="edge8" class="edge">
<title>8&#45;&gt;0</title>
<path fill="none" stroke="grey" stroke-width="2" d="M1301.51,-71.7C1312.22,-62.88 1325.39,-52.03 1337,-42.47"/>
<polygon fill="grey" stroke="grey" stroke-width="2" points="1339.24,-45.16 1344.73,-36.1 1334.79,-39.76 1339.24,-45.16"/>
</g>
<!-- 9 -->
<g id="node10" class="node">
<title>9</title>
<path fill="none" stroke="#d8cb56" stroke-width="2" stroke-dasharray="5,2" d="M1389.5,-180C1389.5,-180 1351.5,-180 1351.5,-180 1345.5,-180 1339.5,-174 1339.5,-168 1339.5,-168 1339.5,-156 1339.5,-156 1339.5,-150 1345.5,-144 1351.5,-144 1351.5,-144 1389.5,-144 1389.5,-144 1395.5,-144 1401.5,-150 1401.5,-156 1401.5,-156 1401.5,-168 1401.5,-168 1401.5,-174 1395.5,-180 1389.5,-180"/>
<text text-anchor="middle" x="1370.5" y="-159.5" font-family="sans" font-size="10.00">bam_sort</text>
</g>
<!-- 9&#45;&gt;8 -->
<g id="edge26" class="edge">
<title>9&#45;&gt;8</title>
<path fill="none" stroke="grey" stroke-width="2" d="M1348.25,-143.7C1336.92,-134.88 1322.97,-124.03 1310.68,-114.47"/>
<polygon fill="grey" stroke="grey" stroke-width="2" points="1312.53,-111.48 1302.49,-108.1 1308.24,-117.01 1312.53,-111.48"/>
</g>
<!-- 28 -->
<g id="node29" class="node">
<title>28</title>
<path fill="none" stroke="#56d892" stroke-width="2" d="M1212.5,-108C1212.5,-108 1178.5,-108 1178.5,-108 1172.5,-108 1166.5,-102 1166.5,-96 1166.5,-96 1166.5,-84 1166.5,-84 1166.5,-78 1172.5,-72 1178.5,-72 1178.5,-72 1212.5,-72 1212.5,-72 1218.5,-72 1224.5,-78 1224.5,-84 1224.5,-84 1224.5,-96 1224.5,-96 1224.5,-102 1218.5,-108 1212.5,-108"/>
<text text-anchor="middle" x="1195.5" y="-87.5" font-family="sans" font-size="10.00">callpeak</text>
</g>
<!-- 9&#45;&gt;28 -->
<g id="edge45" class="edge">
<title>9&#45;&gt;28</title>
<path fill="none" stroke="grey" stroke-width="2" d="M1339.49,-147.29C1336.8,-146.15 1334.1,-145.05 1331.5,-144 1291.21,-127.84 1278.15,-125.71 1234.38,-108.22"/>
<polygon fill="grey" stroke="grey" stroke-width="2" points="1235.46,-104.88 1224.87,-104.38 1232.83,-111.37 1235.46,-104.88"/>
</g>
<!-- 10 -->
<g id="node11" class="node">
<title>10</title>
<path fill="none" stroke="#d8a456" stroke-width="2" stroke-dasharray="5,2" d="M1180,-252C1180,-252 1001,-252 1001,-252 995,-252 989,-246 989,-240 989,-240 989,-228 989,-228 989,-222 995,-216 1001,-216 1001,-216 1180,-216 1180,-216 1186,-216 1192,-222 1192,-228 1192,-228 1192,-240 1192,-240 1192,-246 1186,-252 1180,-252"/>
<text text-anchor="middle" x="1090.5" y="-237" font-family="sans" font-size="10.00">align_reads_se</text>
<text text-anchor="middle" x="1090.5" y="-226" font-family="sans" font-size="10.00">sample: GSM1102782_CD14_H3K27ac</text>
</g>
<!-- 10&#45;&gt;9 -->
<g id="edge27" class="edge">
<title>10&#45;&gt;9</title>
<path fill="none" stroke="grey" stroke-width="2" d="M1188.4,-215.97C1229.96,-207.66 1278.91,-196.46 1329.42,-180.43"/>
<polygon fill="grey" stroke="grey" stroke-width="2" points="1330.76,-183.67 1339.2,-177.27 1328.61,-177.01 1330.76,-183.67"/>
</g>
<!-- 11 -->
<g id="node12" class="node">
<title>11</title>
<path fill="none" stroke="#d87d56" stroke-width="2" stroke-dasharray="5,2" d="M1694.5,-324C1694.5,-324 1630.5,-324 1630.5,-324 1624.5,-324 1618.5,-318 1618.5,-312 1618.5,-312 1618.5,-300 1618.5,-300 1618.5,-294 1624.5,-288 1630.5,-288 1630.5,-288 1694.5,-288 1694.5,-288 1700.5,-288 1706.5,-294 1706.5,-300 1706.5,-300 1706.5,-312 1706.5,-312 1706.5,-318 1700.5,-324 1694.5,-324"/>
<text text-anchor="middle" x="1662.5" y="-303.5" font-family="sans" font-size="10.00">bowtie2_index</text>
</g>
<!-- 11&#45;&gt;10 -->
<g id="edge28" class="edge">
<title>11&#45;&gt;10</title>
<path fill="none" stroke="grey" stroke-width="2" d="M1618.48,-300.53C1537.92,-292.22 1361.17,-273.41 1202.04,-252.18"/>
<polygon fill="grey" stroke="grey" stroke-width="2" points="1202.44,-248.7 1192.07,-250.84 1201.51,-255.64 1202.44,-248.7"/>
</g>
<!-- 15 -->
<g id="node16" class="node">
<title>15</title>
<path fill="none" stroke="#d8a456" stroke-width="2" stroke-dasharray="5,2" d="M1411.5,-252C1411.5,-252 1221.5,-252 1221.5,-252 1215.5,-252 1209.5,-246 1209.5,-240 1209.5,-240 1209.5,-228 1209.5,-228 1209.5,-222 1215.5,-216 1221.5,-216 1221.5,-216 1411.5,-216 1411.5,-216 1417.5,-216 1423.5,-222 1423.5,-228 1423.5,-228 1423.5,-240 1423.5,-240 1423.5,-246 1417.5,-252 1411.5,-252"/>
<text text-anchor="middle" x="1316.5" y="-237" font-family="sans" font-size="10.00">align_reads_se</text>
<text text-anchor="middle" x="1316.5" y="-226" font-family="sans" font-size="10.00">sample: GSM1102785_CD14_H3K27me3</text>
</g>
<!-- 11&#45;&gt;15 -->
<g id="edge32" class="edge">
<title>11&#45;&gt;15</title>
<path fill="none" stroke="grey" stroke-width="2" d="M1618.33,-296.06C1566.23,-285.52 1478.19,-267.71 1410.6,-254.04"/>
<polygon fill="grey" stroke="grey" stroke-width="2" points="1411.27,-250.6 1400.78,-252.05 1409.89,-257.46 1411.27,-250.6"/>
</g>
<!-- 18 -->
<g id="node19" class="node">
<title>18</title>
<path fill="none" stroke="#d8a456" stroke-width="2" stroke-dasharray="5,2" d="M1643.5,-252C1643.5,-252 1453.5,-252 1453.5,-252 1447.5,-252 1441.5,-246 1441.5,-240 1441.5,-240 1441.5,-228 1441.5,-228 1441.5,-222 1447.5,-216 1453.5,-216 1453.5,-216 1643.5,-216 1643.5,-216 1649.5,-216 1655.5,-222 1655.5,-228 1655.5,-228 1655.5,-240 1655.5,-240 1655.5,-246 1649.5,-252 1643.5,-252"/>
<text text-anchor="middle" x="1548.5" y="-237" font-family="sans" font-size="10.00">align_reads_se</text>
<text text-anchor="middle" x="1548.5" y="-226" font-family="sans" font-size="10.00">sample: GSM1102788_CD14_H3K36me3</text>
</g>
<!-- 11&#45;&gt;18 -->
<g id="edge35" class="edge">
<title>11&#45;&gt;18</title>
<path fill="none" stroke="grey" stroke-width="2" d="M1634.61,-287.88C1619.71,-278.72 1601.17,-267.34 1585.12,-257.48"/>
<polygon fill="grey" stroke="grey" stroke-width="2" points="1586.85,-254.44 1576.49,-252.19 1583.19,-260.41 1586.85,-254.44"/>
</g>
<!-- 21 -->
<g id="node22" class="node">
<title>21</title>
<path fill="none" stroke="#d8a456" stroke-width="2" stroke-dasharray="5,2" d="M1869.5,-252C1869.5,-252 1685.5,-252 1685.5,-252 1679.5,-252 1673.5,-246 1673.5,-240 1673.5,-240 1673.5,-228 1673.5,-228 1673.5,-222 1679.5,-216 1685.5,-216 1685.5,-216 1869.5,-216 1869.5,-216 1875.5,-216 1881.5,-222 1881.5,-228 1881.5,-228 1881.5,-240 1881.5,-240 1881.5,-246 1875.5,-252 1869.5,-252"/>
<text text-anchor="middle" x="1777.5" y="-237" font-family="sans" font-size="10.00">align_reads_se</text>
<text text-anchor="middle" x="1777.5" y="-226" font-family="sans" font-size="10.00">sample: GSM1102793_CD14_H3K4me1</text>
</g>
<!-- 11&#45;&gt;21 -->
<g id="edge38" class="edge">
<title>11&#45;&gt;21</title>
<path fill="none" stroke="grey" stroke-width="2" d="M1690.63,-287.88C1705.67,-278.72 1724.37,-267.34 1740.56,-257.48"/>
<polygon fill="grey" stroke="grey" stroke-width="2" points="1742.54,-260.38 1749.26,-252.19 1738.9,-254.4 1742.54,-260.38"/>
</g>
<!-- 24 -->
<g id="node25" class="node">
<title>24</title>
<path fill="none" stroke="#d8a456" stroke-width="2" stroke-dasharray="5,2" d="M2095.5,-252C2095.5,-252 1911.5,-252 1911.5,-252 1905.5,-252 1899.5,-246 1899.5,-240 1899.5,-240 1899.5,-228 1899.5,-228 1899.5,-222 1905.5,-216 1911.5,-216 1911.5,-216 2095.5,-216 2095.5,-216 2101.5,-216 2107.5,-222 2107.5,-228 2107.5,-228 2107.5,-240 2107.5,-240 2107.5,-246 2101.5,-252 2095.5,-252"/>
<text text-anchor="middle" x="2003.5" y="-237" font-family="sans" font-size="10.00">align_reads_se</text>
<text text-anchor="middle" x="2003.5" y="-226" font-family="sans" font-size="10.00">sample: GSM1102797_CD14_H3K4me3</text>
</g>
<!-- 11&#45;&gt;24 -->
<g id="edge41" class="edge">
<title>11&#45;&gt;24</title>
<path fill="none" stroke="grey" stroke-width="2" d="M1706.73,-295.92C1758.07,-285.38 1844.15,-267.71 1910.42,-254.11"/>
<polygon fill="grey" stroke="grey" stroke-width="2" points="1911.37,-257.49 1920.46,-252.05 1909.96,-250.63 1911.37,-257.49"/>
</g>
<!-- 27 -->
<g id="node28" class="node">
<title>27</title>
<path fill="none" stroke="#d8a456" stroke-width="2" stroke-dasharray="5,2" d="M2299,-252C2299,-252 2138,-252 2138,-252 2132,-252 2126,-246 2126,-240 2126,-240 2126,-228 2126,-228 2126,-222 2132,-216 2138,-216 2138,-216 2299,-216 2299,-216 2305,-216 2311,-222 2311,-228 2311,-228 2311,-240 2311,-240 2311,-246 2305,-252 2299,-252"/>
<text text-anchor="middle" x="2218.5" y="-237" font-family="sans" font-size="10.00">align_reads_se</text>
<text text-anchor="middle" x="2218.5" y="-226" font-family="sans" font-size="10.00">sample: GSM1102807_CD14_input</text>
</g>
<!-- 11&#45;&gt;27 -->
<g id="edge44" class="edge">
<title>11&#45;&gt;27</title>
<path fill="none" stroke="grey" stroke-width="2" d="M1706.74,-300.56C1786.29,-292.42 1959,-274.04 2115.67,-252.08"/>
<polygon fill="grey" stroke="grey" stroke-width="2" points="2116.55,-255.49 2125.96,-250.63 2115.57,-248.56 2116.55,-255.49"/>
</g>
<!-- 12 -->
<g id="node13" class="node">
<title>12</title>
<path fill="none" stroke="#b6d856" stroke-width="2" stroke-dasharray="5,2" d="M1708.5,-396C1708.5,-396 1616.5,-396 1616.5,-396 1610.5,-396 1604.5,-390 1604.5,-384 1604.5,-384 1604.5,-372 1604.5,-372 1604.5,-366 1610.5,-360 1616.5,-360 1616.5,-360 1708.5,-360 1708.5,-360 1714.5,-360 1720.5,-366 1720.5,-372 1720.5,-372 1720.5,-384 1720.5,-384 1720.5,-390 1714.5,-396 1708.5,-396"/>
<text text-anchor="middle" x="1662.5" y="-381" font-family="sans" font-size="10.00">download_reference</text>
<text text-anchor="middle" x="1662.5" y="-370" font-family="sans" font-size="10.00">genome: hg19</text>
</g>
<!-- 12&#45;&gt;11 -->
<g id="edge29" class="edge">
<title>12&#45;&gt;11</title>
<path fill="none" stroke="grey" stroke-width="2" d="M1662.5,-359.7C1662.5,-351.98 1662.5,-342.71 1662.5,-334.11"/>
<polygon fill="grey" stroke="grey" stroke-width="2" points="1666,-334.1 1662.5,-324.1 1659,-334.1 1666,-334.1"/>
</g>
<!-- 13 -->
<g id="node14" class="node">
<title>13</title>
<path fill="none" stroke="#56d86b" stroke-width="2" stroke-dasharray="5,2" d="M1476.5,-108C1476.5,-108 1424.5,-108 1424.5,-108 1418.5,-108 1412.5,-102 1412.5,-96 1412.5,-96 1412.5,-84 1412.5,-84 1412.5,-78 1418.5,-72 1424.5,-72 1424.5,-72 1476.5,-72 1476.5,-72 1482.5,-72 1488.5,-78 1488.5,-84 1488.5,-84 1488.5,-96 1488.5,-96 1488.5,-102 1482.5,-108 1476.5,-108"/>
<text text-anchor="middle" x="1450.5" y="-87.5" font-family="sans" font-size="10.00">bam_bigwig</text>
</g>
<!-- 13&#45;&gt;0 -->
<g id="edge9" class="edge">
<title>13&#45;&gt;0</title>
<path fill="none" stroke="grey" stroke-width="2" d="M1429.49,-71.7C1418.78,-62.88 1405.61,-52.03 1394,-42.47"/>
<polygon fill="grey" stroke="grey" stroke-width="2" points="1396.21,-39.76 1386.27,-36.1 1391.76,-45.16 1396.21,-39.76"/>
</g>
<!-- 14 -->
<g id="node15" class="node">
<title>14</title>
<path fill="none" stroke="#d8cb56" stroke-width="2" stroke-dasharray="5,2" d="M1469.5,-180C1469.5,-180 1431.5,-180 1431.5,-180 1425.5,-180 1419.5,-174 1419.5,-168 1419.5,-168 1419.5,-156 1419.5,-156 1419.5,-150 1425.5,-144 1431.5,-144 1431.5,-144 1469.5,-144 1469.5,-144 1475.5,-144 1481.5,-150 1481.5,-156 1481.5,-156 1481.5,-168 1481.5,-168 1481.5,-174 1475.5,-180 1469.5,-180"/>
<text text-anchor="middle" x="1450.5" y="-159.5" font-family="sans" font-size="10.00">bam_sort</text>
</g>
<!-- 14&#45;&gt;13 -->
<g id="edge30" class="edge">
<title>14&#45;&gt;13</title>
<path fill="none" stroke="grey" stroke-width="2" d="M1450.5,-143.7C1450.5,-135.98 1450.5,-126.71 1450.5,-118.11"/>
<polygon fill="grey" stroke="grey" stroke-width="2" points="1454,-118.1 1450.5,-108.1 1447,-118.1 1454,-118.1"/>
</g>
<!-- 29 -->
<g id="node30" class="node">
<title>29</title>
<path fill="none" stroke="#56d892" stroke-width="2" d="M1382.5,-108C1382.5,-108 1348.5,-108 1348.5,-108 1342.5,-108 1336.5,-102 1336.5,-96 1336.5,-96 1336.5,-84 1336.5,-84 1336.5,-78 1342.5,-72 1348.5,-72 1348.5,-72 1382.5,-72 1382.5,-72 1388.5,-72 1394.5,-78 1394.5,-84 1394.5,-84 1394.5,-96 1394.5,-96 1394.5,-102 1388.5,-108 1382.5,-108"/>
<text text-anchor="middle" x="1365.5" y="-87.5" font-family="sans" font-size="10.00">callpeak</text>
</g>
<!-- 14&#45;&gt;29 -->
<g id="edge46" class="edge">
<title>14&#45;&gt;29</title>
<path fill="none" stroke="grey" stroke-width="2" d="M1429.49,-143.7C1418.78,-134.88 1405.61,-124.03 1394,-114.47"/>
<polygon fill="grey" stroke="grey" stroke-width="2" points="1396.21,-111.76 1386.27,-108.1 1391.76,-117.16 1396.21,-111.76"/>
</g>
<!-- 15&#45;&gt;14 -->
<g id="edge31" class="edge">
<title>15&#45;&gt;14</title>
<path fill="none" stroke="grey" stroke-width="2" d="M1349.28,-215.88C1367.74,-206.23 1390.94,-194.11 1410.47,-183.91"/>
<polygon fill="grey" stroke="grey" stroke-width="2" points="1412.2,-186.96 1419.44,-179.23 1408.96,-180.75 1412.2,-186.96"/>
</g>
<!-- 16 -->
<g id="node17" class="node">
<title>16</title>
<path fill="none" stroke="#56d86b" stroke-width="2" stroke-dasharray="5,2" d="M1646.5,-108C1646.5,-108 1594.5,-108 1594.5,-108 1588.5,-108 1582.5,-102 1582.5,-96 1582.5,-96 1582.5,-84 1582.5,-84 1582.5,-78 1588.5,-72 1594.5,-72 1594.5,-72 1646.5,-72 1646.5,-72 1652.5,-72 1658.5,-78 1658.5,-84 1658.5,-84 1658.5,-96 1658.5,-96 1658.5,-102 1652.5,-108 1646.5,-108"/>
<text text-anchor="middle" x="1620.5" y="-87.5" font-family="sans" font-size="10.00">bam_bigwig</text>
</g>
<!-- 16&#45;&gt;0 -->
<g id="edge10" class="edge">
<title>16&#45;&gt;0</title>
<path fill="none" stroke="grey" stroke-width="2" d="M1582.39,-74.86C1579.39,-73.86 1576.4,-72.89 1573.5,-72 1514.39,-53.83 1444.52,-36.95 1402.67,-27.32"/>
<polygon fill="grey" stroke="grey" stroke-width="2" points="1403.19,-23.84 1392.66,-25.03 1401.63,-30.67 1403.19,-23.84"/>
</g>
<!-- 17 -->
<g id="node18" class="node">
<title>17</title>
<path fill="none" stroke="#d8cb56" stroke-width="2" stroke-dasharray="5,2" d="M1567.5,-180C1567.5,-180 1529.5,-180 1529.5,-180 1523.5,-180 1517.5,-174 1517.5,-168 1517.5,-168 1517.5,-156 1517.5,-156 1517.5,-150 1523.5,-144 1529.5,-144 1529.5,-144 1567.5,-144 1567.5,-144 1573.5,-144 1579.5,-150 1579.5,-156 1579.5,-156 1579.5,-168 1579.5,-168 1579.5,-174 1573.5,-180 1567.5,-180"/>
<text text-anchor="middle" x="1548.5" y="-159.5" font-family="sans" font-size="10.00">bam_sort</text>
</g>
<!-- 17&#45;&gt;16 -->
<g id="edge33" class="edge">
<title>17&#45;&gt;16</title>
<path fill="none" stroke="grey" stroke-width="2" d="M1566.3,-143.7C1575.1,-135.14 1585.88,-124.66 1595.5,-115.3"/>
<polygon fill="grey" stroke="grey" stroke-width="2" points="1598.18,-117.58 1602.91,-108.1 1593.3,-112.57 1598.18,-117.58"/>
</g>
<!-- 30 -->
<g id="node31" class="node">
<title>30</title>
<path fill="none" stroke="#56d892" stroke-width="2" d="M1552.5,-108C1552.5,-108 1518.5,-108 1518.5,-108 1512.5,-108 1506.5,-102 1506.5,-96 1506.5,-96 1506.5,-84 1506.5,-84 1506.5,-78 1512.5,-72 1518.5,-72 1518.5,-72 1552.5,-72 1552.5,-72 1558.5,-72 1564.5,-78 1564.5,-84 1564.5,-84 1564.5,-96 1564.5,-96 1564.5,-102 1558.5,-108 1552.5,-108"/>
<text text-anchor="middle" x="1535.5" y="-87.5" font-family="sans" font-size="10.00">callpeak</text>
</g>
<!-- 17&#45;&gt;30 -->
<g id="edge47" class="edge">
<title>17&#45;&gt;30</title>
<path fill="none" stroke="grey" stroke-width="2" d="M1545.29,-143.7C1543.85,-135.98 1542.13,-126.71 1540.54,-118.11"/>
<polygon fill="grey" stroke="grey" stroke-width="2" points="1543.94,-117.3 1538.68,-108.1 1537.06,-118.58 1543.94,-117.3"/>
</g>
<!-- 18&#45;&gt;17 -->
<g id="edge34" class="edge">
<title>18&#45;&gt;17</title>
<path fill="none" stroke="grey" stroke-width="2" d="M1548.5,-215.7C1548.5,-207.98 1548.5,-198.71 1548.5,-190.11"/>
<polygon fill="grey" stroke="grey" stroke-width="2" points="1552,-190.1 1548.5,-180.1 1545,-190.1 1552,-190.1"/>
</g>
<!-- 19 -->
<g id="node20" class="node">
<title>19</title>
<path fill="none" stroke="#56d86b" stroke-width="2" stroke-dasharray="5,2" d="M1816.5,-108C1816.5,-108 1764.5,-108 1764.5,-108 1758.5,-108 1752.5,-102 1752.5,-96 1752.5,-96 1752.5,-84 1752.5,-84 1752.5,-78 1758.5,-72 1764.5,-72 1764.5,-72 1816.5,-72 1816.5,-72 1822.5,-72 1828.5,-78 1828.5,-84 1828.5,-84 1828.5,-96 1828.5,-96 1828.5,-102 1822.5,-108 1816.5,-108"/>
<text text-anchor="middle" x="1790.5" y="-87.5" font-family="sans" font-size="10.00">bam_bigwig</text>
</g>
<!-- 19&#45;&gt;0 -->
<g id="edge11" class="edge">
<title>19&#45;&gt;0</title>
<path fill="none" stroke="grey" stroke-width="2" d="M1752.49,-74.5C1749.47,-73.58 1746.45,-72.73 1743.5,-72 1621.09,-41.63 1471.77,-27.12 1403.21,-21.68"/>
<polygon fill="grey" stroke="grey" stroke-width="2" points="1403.15,-18.16 1392.91,-20.88 1402.61,-25.14 1403.15,-18.16"/>
</g>
<!-- 20 -->
<g id="node21" class="node">
<title>20</title>
<path fill="none" stroke="#d8cb56" stroke-width="2" stroke-dasharray="5,2" d="M1796.5,-180C1796.5,-180 1758.5,-180 1758.5,-180 1752.5,-180 1746.5,-174 1746.5,-168 1746.5,-168 1746.5,-156 1746.5,-156 1746.5,-150 1752.5,-144 1758.5,-144 1758.5,-144 1796.5,-144 1796.5,-144 1802.5,-144 1808.5,-150 1808.5,-156 1808.5,-156 1808.5,-168 1808.5,-168 1808.5,-174 1802.5,-180 1796.5,-180"/>
<text text-anchor="middle" x="1777.5" y="-159.5" font-family="sans" font-size="10.00">bam_sort</text>
</g>
<!-- 20&#45;&gt;19 -->
<g id="edge36" class="edge">
<title>20&#45;&gt;19</title>
<path fill="none" stroke="grey" stroke-width="2" d="M1780.71,-143.7C1782.15,-135.98 1783.87,-126.71 1785.46,-118.11"/>
<polygon fill="grey" stroke="grey" stroke-width="2" points="1788.94,-118.58 1787.32,-108.1 1782.06,-117.3 1788.94,-118.58"/>
</g>
<!-- 31 -->
<g id="node32" class="node">
<title>31</title>
<path fill="none" stroke="#56d892" stroke-width="2" d="M1722.5,-108C1722.5,-108 1688.5,-108 1688.5,-108 1682.5,-108 1676.5,-102 1676.5,-96 1676.5,-96 1676.5,-84 1676.5,-84 1676.5,-78 1682.5,-72 1688.5,-72 1688.5,-72 1722.5,-72 1722.5,-72 1728.5,-72 1734.5,-78 1734.5,-84 1734.5,-84 1734.5,-96 1734.5,-96 1734.5,-102 1728.5,-108 1722.5,-108"/>
<text text-anchor="middle" x="1705.5" y="-87.5" font-family="sans" font-size="10.00">callpeak</text>
</g>
<!-- 20&#45;&gt;31 -->
<g id="edge48" class="edge">
<title>20&#45;&gt;31</title>
<path fill="none" stroke="grey" stroke-width="2" d="M1759.7,-143.7C1750.9,-135.14 1740.12,-124.66 1730.5,-115.3"/>
<polygon fill="grey" stroke="grey" stroke-width="2" points="1732.7,-112.57 1723.09,-108.1 1727.82,-117.58 1732.7,-112.57"/>
</g>
<!-- 21&#45;&gt;20 -->
<g id="edge37" class="edge">
<title>21&#45;&gt;20</title>
<path fill="none" stroke="grey" stroke-width="2" d="M1777.5,-215.7C1777.5,-207.98 1777.5,-198.71 1777.5,-190.11"/>
<polygon fill="grey" stroke="grey" stroke-width="2" points="1781,-190.1 1777.5,-180.1 1774,-190.1 1781,-190.1"/>
</g>
<!-- 22 -->
<g id="node23" class="node">
<title>22</title>
<path fill="none" stroke="#56d86b" stroke-width="2" stroke-dasharray="5,2" d="M1986.5,-108C1986.5,-108 1934.5,-108 1934.5,-108 1928.5,-108 1922.5,-102 1922.5,-96 1922.5,-96 1922.5,-84 1922.5,-84 1922.5,-78 1928.5,-72 1934.5,-72 1934.5,-72 1986.5,-72 1986.5,-72 1992.5,-72 1998.5,-78 1998.5,-84 1998.5,-84 1998.5,-96 1998.5,-96 1998.5,-102 1992.5,-108 1986.5,-108"/>
<text text-anchor="middle" x="1960.5" y="-87.5" font-family="sans" font-size="10.00">bam_bigwig</text>
</g>
<!-- 22&#45;&gt;0 -->
<g id="edge12" class="edge">
<title>22&#45;&gt;0</title>
<path fill="none" stroke="grey" stroke-width="2" d="M1922.26,-74.28C1919.32,-73.43 1916.38,-72.65 1913.5,-72 1724.89,-29.48 1492.21,-21.06 1402.85,-19.4"/>
<polygon fill="grey" stroke="grey" stroke-width="2" points="1402.74,-15.9 1392.68,-19.23 1402.62,-22.9 1402.74,-15.9"/>
</g>
<!-- 23 -->
<g id="node24" class="node">
<title>23</title>
<path fill="none" stroke="#d8cb56" stroke-width="2" stroke-dasharray="5,2" d="M1979.5,-180C1979.5,-180 1941.5,-180 1941.5,-180 1935.5,-180 1929.5,-174 1929.5,-168 1929.5,-168 1929.5,-156 1929.5,-156 1929.5,-150 1935.5,-144 1941.5,-144 1941.5,-144 1979.5,-144 1979.5,-144 1985.5,-144 1991.5,-150 1991.5,-156 1991.5,-156 1991.5,-168 1991.5,-168 1991.5,-174 1985.5,-180 1979.5,-180"/>
<text text-anchor="middle" x="1960.5" y="-159.5" font-family="sans" font-size="10.00">bam_sort</text>
</g>
<!-- 23&#45;&gt;22 -->
<g id="edge39" class="edge">
<title>23&#45;&gt;22</title>
<path fill="none" stroke="grey" stroke-width="2" d="M1960.5,-143.7C1960.5,-135.98 1960.5,-126.71 1960.5,-118.11"/>
<polygon fill="grey" stroke="grey" stroke-width="2" points="1964,-118.1 1960.5,-108.1 1957,-118.1 1964,-118.1"/>
</g>
<!-- 32 -->
<g id="node33" class="node">
<title>32</title>
<path fill="none" stroke="#56d892" stroke-width="2" d="M1892.5,-108C1892.5,-108 1858.5,-108 1858.5,-108 1852.5,-108 1846.5,-102 1846.5,-96 1846.5,-96 1846.5,-84 1846.5,-84 1846.5,-78 1852.5,-72 1858.5,-72 1858.5,-72 1892.5,-72 1892.5,-72 1898.5,-72 1904.5,-78 1904.5,-84 1904.5,-84 1904.5,-96 1904.5,-96 1904.5,-102 1898.5,-108 1892.5,-108"/>
<text text-anchor="middle" x="1875.5" y="-87.5" font-family="sans" font-size="10.00">callpeak</text>
</g>
<!-- 23&#45;&gt;32 -->
<g id="edge49" class="edge">
<title>23&#45;&gt;32</title>
<path fill="none" stroke="grey" stroke-width="2" d="M1939.49,-143.7C1928.78,-134.88 1915.61,-124.03 1904,-114.47"/>
<polygon fill="grey" stroke="grey" stroke-width="2" points="1906.21,-111.76 1896.27,-108.1 1901.76,-117.16 1906.21,-111.76"/>
</g>
<!-- 24&#45;&gt;23 -->
<g id="edge40" class="edge">
<title>24&#45;&gt;23</title>
<path fill="none" stroke="grey" stroke-width="2" d="M1992.87,-215.7C1987.87,-207.56 1981.81,-197.69 1976.29,-188.7"/>
<polygon fill="grey" stroke="grey" stroke-width="2" points="1979.22,-186.79 1971.01,-180.1 1973.26,-190.46 1979.22,-186.79"/>
</g>
<!-- 25 -->
<g id="node26" class="node">
<title>25</title>
<path fill="none" stroke="#56d86b" stroke-width="2" stroke-dasharray="5,2" d="M2156.5,-108C2156.5,-108 2104.5,-108 2104.5,-108 2098.5,-108 2092.5,-102 2092.5,-96 2092.5,-96 2092.5,-84 2092.5,-84 2092.5,-78 2098.5,-72 2104.5,-72 2104.5,-72 2156.5,-72 2156.5,-72 2162.5,-72 2168.5,-78 2168.5,-84 2168.5,-84 2168.5,-96 2168.5,-96 2168.5,-102 2162.5,-108 2156.5,-108"/>
<text text-anchor="middle" x="2130.5" y="-87.5" font-family="sans" font-size="10.00">bam_bigwig</text>
</g>
<!-- 25&#45;&gt;0 -->
<g id="edge13" class="edge">
<title>25&#45;&gt;0</title>
<path fill="none" stroke="grey" stroke-width="2" d="M2092.28,-74.21C2089.33,-73.37 2086.39,-72.62 2083.5,-72 1951.38,-43.79 1530.42,-25.43 1402.63,-20.4"/>
<polygon fill="grey" stroke="grey" stroke-width="2" points="1402.69,-16.9 1392.56,-20.01 1402.42,-23.9 1402.69,-16.9"/>
</g>
<!-- 26 -->
<g id="node27" class="node">
<title>26</title>
<path fill="none" stroke="#d8cb56" stroke-width="2" stroke-dasharray="5,2" d="M2149.5,-180C2149.5,-180 2111.5,-180 2111.5,-180 2105.5,-180 2099.5,-174 2099.5,-168 2099.5,-168 2099.5,-156 2099.5,-156 2099.5,-150 2105.5,-144 2111.5,-144 2111.5,-144 2149.5,-144 2149.5,-144 2155.5,-144 2161.5,-150 2161.5,-156 2161.5,-156 2161.5,-168 2161.5,-168 2161.5,-174 2155.5,-180 2149.5,-180"/>
<text text-anchor="middle" x="2130.5" y="-159.5" font-family="sans" font-size="10.00">bam_sort</text>
</g>
<!-- 26&#45;&gt;25 -->
<g id="edge42" class="edge">
<title>26&#45;&gt;25</title>
<path fill="none" stroke="grey" stroke-width="2" d="M2130.5,-143.7C2130.5,-135.98 2130.5,-126.71 2130.5,-118.11"/>
<polygon fill="grey" stroke="grey" stroke-width="2" points="2134,-118.1 2130.5,-108.1 2127,-118.1 2134,-118.1"/>
</g>
<!-- 33 -->
<g id="node34" class="node">
<title>33</title>
<path fill="none" stroke="#56d892" stroke-width="2" d="M2062.5,-108C2062.5,-108 2028.5,-108 2028.5,-108 2022.5,-108 2016.5,-102 2016.5,-96 2016.5,-96 2016.5,-84 2016.5,-84 2016.5,-78 2022.5,-72 2028.5,-72 2028.5,-72 2062.5,-72 2062.5,-72 2068.5,-72 2074.5,-78 2074.5,-84 2074.5,-84 2074.5,-96 2074.5,-96 2074.5,-102 2068.5,-108 2062.5,-108"/>
<text text-anchor="middle" x="2045.5" y="-87.5" font-family="sans" font-size="10.00">callpeak</text>
</g>
<!-- 26&#45;&gt;33 -->
<g id="edge50" class="edge">
<title>26&#45;&gt;33</title>
<path fill="none" stroke="grey" stroke-width="2" d="M2109.49,-143.7C2098.78,-134.88 2085.61,-124.03 2074,-114.47"/>
<polygon fill="grey" stroke="grey" stroke-width="2" points="2076.21,-111.76 2066.27,-108.1 2071.76,-117.16 2076.21,-111.76"/>
</g>
<!-- 27&#45;&gt;26 -->
<g id="edge43" class="edge">
<title>27&#45;&gt;26</title>
<path fill="none" stroke="grey" stroke-width="2" d="M2196.75,-215.7C2185.66,-206.88 2172.03,-196.03 2160.01,-186.47"/>
<polygon fill="grey" stroke="grey" stroke-width="2" points="2162.01,-183.59 2152,-180.1 2157.65,-189.07 2162.01,-183.59"/>
</g>
<!-- 28&#45;&gt;0 -->
<g id="edge14" class="edge">
<title>28&#45;&gt;0</title>
<path fill="none" stroke="grey" stroke-width="2" d="M1224.91,-75.71C1227.81,-74.44 1230.71,-73.19 1233.5,-72 1265.45,-58.44 1302.1,-43.8 1328.67,-33.35"/>
<polygon fill="grey" stroke="grey" stroke-width="2" points="1330.29,-36.47 1338.32,-29.56 1327.74,-29.95 1330.29,-36.47"/>
</g>
<!-- 29&#45;&gt;0 -->
<g id="edge15" class="edge">
<title>29&#45;&gt;0</title>
<path fill="none" stroke="grey" stroke-width="2" d="M1365.5,-71.7C1365.5,-63.98 1365.5,-54.71 1365.5,-46.11"/>
<polygon fill="grey" stroke="grey" stroke-width="2" points="1369,-46.1 1365.5,-36.1 1362,-46.1 1369,-46.1"/>
</g>
<!-- 30&#45;&gt;0 -->
<g id="edge16" class="edge">
<title>30&#45;&gt;0</title>
<path fill="none" stroke="grey" stroke-width="2" d="M1506.09,-75.71C1503.19,-74.44 1500.29,-73.19 1497.5,-72 1465.55,-58.44 1428.9,-43.8 1402.33,-33.35"/>
<polygon fill="grey" stroke="grey" stroke-width="2" points="1403.26,-29.95 1392.68,-29.56 1400.71,-36.47 1403.26,-29.95"/>
</g>
<!-- 31&#45;&gt;0 -->
<g id="edge17" class="edge">
<title>31&#45;&gt;0</title>
<path fill="none" stroke="grey" stroke-width="2" d="M1676.32,-75.09C1673.38,-73.94 1670.4,-72.89 1667.5,-72 1574.54,-43.53 1460.52,-28.71 1402.79,-22.55"/>
<polygon fill="grey" stroke="grey" stroke-width="2" points="1402.99,-19.05 1392.69,-21.5 1402.27,-26.01 1402.99,-19.05"/>
</g>
<!-- 32&#45;&gt;0 -->
<g id="edge18" class="edge">
<title>32&#45;&gt;0</title>
<path fill="none" stroke="grey" stroke-width="2" d="M1846.37,-74.9C1843.42,-73.79 1840.43,-72.8 1837.5,-72 1679.9,-29.02 1483.56,-20.82 1402.82,-19.31"/>
<polygon fill="grey" stroke="grey" stroke-width="2" points="1402.71,-15.81 1392.66,-19.15 1402.6,-22.81 1402.71,-15.81"/>
</g>
<!-- 33&#45;&gt;0 -->
<g id="edge19" class="edge">
<title>33&#45;&gt;0</title>
<path fill="none" stroke="grey" stroke-width="2" d="M2016.4,-74.81C2013.44,-73.72 2010.44,-72.76 2007.5,-72 1891.71,-42.25 1521.55,-25.22 1402.65,-20.42"/>
<polygon fill="grey" stroke="grey" stroke-width="2" points="1402.72,-16.92 1392.58,-20.02 1402.44,-23.91 1402.72,-16.92"/>
</g>
</g>
</svg>
