<?xml version="1.0" encoding="UTF-8" standalone="no"?>
<!DOCTYPE svg PUBLIC "-//W3C//DTD SVG 1.1//EN"
 "http://www.w3.org/Graphics/SVG/1.1/DTD/svg11.dtd">
<!-- Generated by graphviz version 2.47.2 (20210527.1257)
 -->
<!-- Title: snakemake_dag Pages: 1 -->
<svg width="241pt" height="404pt"
 viewBox="0.00 0.00 240.50 404.00" xmlns="http://www.w3.org/2000/svg" xmlns:xlink="http://www.w3.org/1999/xlink">
<g id="graph0" class="graph" transform="scale(1 1) rotate(0) translate(4 400)">
<title>snakemake_dag</title>
<polygon fill="white" stroke="transparent" points="-4,4 -4,-400 236.5,-400 236.5,4 -4,4"/>
<!-- 0 -->
<g id="node1" class="node">
<title>0</title>
<path fill="none" stroke="#d88556" stroke-width="2" d="M90.5,-36C90.5,-36 60.5,-36 60.5,-36 54.5,-36 48.5,-30 48.5,-24 48.5,-24 48.5,-12 48.5,-12 48.5,-6 54.5,0 60.5,0 60.5,0 90.5,0 90.5,0 96.5,0 102.5,-6 102.5,-12 102.5,-12 102.5,-24 102.5,-24 102.5,-30 96.5,-36 90.5,-36"/>
<text text-anchor="middle" x="75.5" y="-15.5" font-family="sans" font-size="10.00">all</text>
</g>
<!-- 1 -->
<g id="node2" class="node">
<title>1</title>
<path fill="none" stroke="#d85656" stroke-width="2" d="M106.5,-108C106.5,-108 44.5,-108 44.5,-108 38.5,-108 32.5,-102 32.5,-96 32.5,-96 32.5,-84 32.5,-84 32.5,-78 38.5,-72 44.5,-72 44.5,-72 106.5,-72 106.5,-72 112.5,-72 118.5,-78 118.5,-84 118.5,-84 118.5,-96 118.5,-96 118.5,-102 112.5,-108 106.5,-108"/>
<text text-anchor="middle" x="75.5" y="-87.5" font-family="sans" font-size="10.00">reads_multiqc</text>
</g>
<!-- 1&#45;&gt;0 -->
<g id="edge2" class="edge">
<title>1&#45;&gt;0</title>
<path fill="none" stroke="grey" stroke-width="2" d="M75.5,-71.7C75.5,-63.98 75.5,-54.71 75.5,-46.11"/>
<polygon fill="grey" stroke="grey" stroke-width="2" points="79,-46.1 75.5,-36.1 72,-46.1 79,-46.1"/>
</g>
<!-- 2 -->
<g id="node3" class="node">
<title>2</title>
<path fill="none" stroke="#5682d8" stroke-width="2" d="M67,-180C67,-180 12,-180 12,-180 6,-180 0,-174 0,-168 0,-168 0,-156 0,-156 0,-150 6,-144 12,-144 12,-144 67,-144 67,-144 73,-144 79,-150 79,-156 79,-156 79,-168 79,-168 79,-174 73,-180 67,-180"/>
<text text-anchor="middle" x="39.5" y="-159.5" font-family="sans" font-size="10.00">reads_fastqc</text>
</g>
<!-- 2&#45;&gt;0 -->
<g id="edge1" class="edge">
<title>2&#45;&gt;0</title>
<path fill="none" stroke="grey" stroke-width="2" d="M30.87,-143.68C22.95,-125.29 13.82,-95.69 23.5,-72 27.99,-61.02 35.97,-51.08 44.35,-42.86"/>
<polygon fill="grey" stroke="grey" stroke-width="2" points="46.74,-45.42 51.75,-36.09 42.01,-40.26 46.74,-45.42"/>
</g>
<!-- 2&#45;&gt;1 -->
<g id="edge4" class="edge">
<title>2&#45;&gt;1</title>
<path fill="none" stroke="grey" stroke-width="2" d="M48.4,-143.7C52.5,-135.73 57.45,-126.1 61.99,-117.26"/>
<polygon fill="grey" stroke="grey" stroke-width="2" points="65.24,-118.6 66.7,-108.1 59.02,-115.4 65.24,-118.6"/>
</g>
<!-- 3 -->
<g id="node4" class="node">
<title>3</title>
<path fill="none" stroke="#56d8c9" stroke-width="2" d="M200.5,-108C200.5,-108 148.5,-108 148.5,-108 142.5,-108 136.5,-102 136.5,-96 136.5,-96 136.5,-84 136.5,-84 136.5,-78 142.5,-72 148.5,-72 148.5,-72 200.5,-72 200.5,-72 206.5,-72 212.5,-78 212.5,-84 212.5,-84 212.5,-96 212.5,-96 212.5,-102 206.5,-108 200.5,-108"/>
<text text-anchor="middle" x="174.5" y="-87.5" font-family="sans" font-size="10.00">bam_bigwig</text>
</g>
<!-- 3&#45;&gt;0 -->
<g id="edge3" class="edge">
<title>3&#45;&gt;0</title>
<path fill="none" stroke="grey" stroke-width="2" d="M150.28,-71.88C137.58,-62.89 121.84,-51.76 108.08,-42.03"/>
<polygon fill="grey" stroke="grey" stroke-width="2" points="110,-39.11 99.81,-36.19 105.96,-44.82 110,-39.11"/>
</g>
<!-- 4 -->
<g id="node5" class="node">
<title>4</title>
<path fill="none" stroke="#56d89a" stroke-width="2" d="M193.5,-180C193.5,-180 155.5,-180 155.5,-180 149.5,-180 143.5,-174 143.5,-168 143.5,-168 143.5,-156 143.5,-156 143.5,-150 149.5,-144 155.5,-144 155.5,-144 193.5,-144 193.5,-144 199.5,-144 205.5,-150 205.5,-156 205.5,-156 205.5,-168 205.5,-168 205.5,-174 199.5,-180 193.5,-180"/>
<text text-anchor="middle" x="174.5" y="-159.5" font-family="sans" font-size="10.00">bam_sort</text>
</g>
<!-- 4&#45;&gt;3 -->
<g id="edge5" class="edge">
<title>4&#45;&gt;3</title>
<path fill="none" stroke="grey" stroke-width="2" d="M174.5,-143.7C174.5,-135.98 174.5,-126.71 174.5,-118.11"/>
<polygon fill="grey" stroke="grey" stroke-width="2" points="178,-118.1 174.5,-108.1 171,-118.1 178,-118.1"/>
</g>
<!-- 5 -->
<g id="node6" class="node">
<title>5</title>
<path fill="none" stroke="#9fd856" stroke-width="2" d="M207,-252C207,-252 142,-252 142,-252 136,-252 130,-246 130,-240 130,-240 130,-228 130,-228 130,-222 136,-216 142,-216 142,-216 207,-216 207,-216 213,-216 219,-222 219,-228 219,-228 219,-240 219,-240 219,-246 213,-252 207,-252"/>
<text text-anchor="middle" x="174.5" y="-231.5" font-family="sans" font-size="10.00">align_reads_se</text>
</g>
<!-- 5&#45;&gt;4 -->
<g id="edge6" class="edge">
<title>5&#45;&gt;4</title>
<path fill="none" stroke="grey" stroke-width="2" d="M174.5,-215.7C174.5,-207.98 174.5,-198.71 174.5,-190.11"/>
<polygon fill="grey" stroke="grey" stroke-width="2" points="178,-190.1 174.5,-180.1 171,-190.1 178,-190.1"/>
</g>
<!-- 6 -->
<g id="node7" class="node">
<title>6</title>
<path fill="none" stroke="#ced856" stroke-width="2" d="M206.5,-324C206.5,-324 142.5,-324 142.5,-324 136.5,-324 130.5,-318 130.5,-312 130.5,-312 130.5,-300 130.5,-300 130.5,-294 136.5,-288 142.5,-288 142.5,-288 206.5,-288 206.5,-288 212.5,-288 218.5,-294 218.5,-300 218.5,-300 218.5,-312 218.5,-312 218.5,-318 212.5,-324 206.5,-324"/>
<text text-anchor="middle" x="174.5" y="-303.5" font-family="sans" font-size="10.00">bowtie2_index</text>
</g>
<!-- 6&#45;&gt;5 -->
<g id="edge7" class="edge">
<title>6&#45;&gt;5</title>
<path fill="none" stroke="grey" stroke-width="2" d="M174.5,-287.7C174.5,-279.98 174.5,-270.71 174.5,-262.11"/>
<polygon fill="grey" stroke="grey" stroke-width="2" points="178,-262.1 174.5,-252.1 171,-262.1 178,-262.1"/>
</g>
<!-- 7 -->
<g id="node8" class="node">
<title>7</title>
<path fill="none" stroke="#56d86b" stroke-width="2" d="M220.5,-396C220.5,-396 128.5,-396 128.5,-396 122.5,-396 116.5,-390 116.5,-384 116.5,-384 116.5,-372 116.5,-372 116.5,-366 122.5,-360 128.5,-360 128.5,-360 220.5,-360 220.5,-360 226.5,-360 232.5,-366 232.5,-372 232.5,-372 232.5,-384 232.5,-384 232.5,-390 226.5,-396 220.5,-396"/>
<text text-anchor="middle" x="174.5" y="-375.5" font-family="sans" font-size="10.00">download_reference</text>
</g>
<!-- 7&#45;&gt;6 -->
<g id="edge8" class="edge">
<title>7&#45;&gt;6</title>
<path fill="none" stroke="grey" stroke-width="2" d="M174.5,-359.7C174.5,-351.98 174.5,-342.71 174.5,-334.11"/>
<polygon fill="grey" stroke="grey" stroke-width="2" points="178,-334.1 174.5,-324.1 171,-334.1 178,-334.1"/>
</g>
</g>
</svg>
