<?xml version="1.0" encoding="UTF-8" standalone="no"?>
<!DOCTYPE svg PUBLIC "-//W3C//DTD SVG 1.1//EN"
 "http://www.w3.org/Graphics/SVG/1.1/DTD/svg11.dtd">
<!-- Generated by graphviz version 2.47.2 (20210527.1257)
 -->
<!-- Title: snakemake_dag Pages: 1 -->
<svg width="296pt" height="404pt"
 viewBox="0.00 0.00 295.50 404.00" xmlns="http://www.w3.org/2000/svg" xmlns:xlink="http://www.w3.org/1999/xlink">
<g id="graph0" class="graph" transform="scale(1 1) rotate(0) translate(4 400)">
<title>snakemake_dag</title>
<polygon fill="white" stroke="transparent" points="-4,4 -4,-400 291.5,-400 291.5,4 -4,4"/>
<!-- 0 -->
<g id="node1" class="node">
<title>0</title>
<path fill="none" stroke="#8fd856" stroke-width="2" d="M138.5,-36C138.5,-36 108.5,-36 108.5,-36 102.5,-36 96.5,-30 96.5,-24 96.5,-24 96.5,-12 96.5,-12 96.5,-6 102.5,0 108.5,0 108.5,0 138.5,0 138.5,0 144.5,0 150.5,-6 150.5,-12 150.5,-12 150.5,-24 150.5,-24 150.5,-30 144.5,-36 138.5,-36"/>
<text text-anchor="middle" x="123.5" y="-15.5" font-family="sans" font-size="10.00">all</text>
</g>
<!-- 1 -->
<g id="node2" class="node">
<title>1</title>
<path fill="none" stroke="#56d892" stroke-width="2" d="M105.5,-108C105.5,-108 43.5,-108 43.5,-108 37.5,-108 31.5,-102 31.5,-96 31.5,-96 31.5,-84 31.5,-84 31.5,-78 37.5,-72 43.5,-72 43.5,-72 105.5,-72 105.5,-72 111.5,-72 117.5,-78 117.5,-84 117.5,-84 117.5,-96 117.5,-96 117.5,-102 111.5,-108 105.5,-108"/>
<text text-anchor="middle" x="74.5" y="-87.5" font-family="sans" font-size="10.00">reads_multiqc</text>
</g>
<!-- 1&#45;&gt;0 -->
<g id="edge3" class="edge">
<title>1&#45;&gt;0</title>
<path fill="none" stroke="grey" stroke-width="2" d="M86.61,-71.7C92.37,-63.47 99.36,-53.48 105.71,-44.42"/>
<polygon fill="grey" stroke="grey" stroke-width="2" points="108.66,-46.3 111.53,-36.1 102.92,-42.29 108.66,-46.3"/>
</g>
<!-- 2 -->
<g id="node3" class="node">
<title>2</title>
<path fill="none" stroke="#567bd8" stroke-width="2" d="M67,-180C67,-180 12,-180 12,-180 6,-180 0,-174 0,-168 0,-168 0,-156 0,-156 0,-150 6,-144 12,-144 12,-144 67,-144 67,-144 73,-144 79,-150 79,-156 79,-156 79,-168 79,-168 79,-174 73,-180 67,-180"/>
<text text-anchor="middle" x="39.5" y="-159.5" font-family="sans" font-size="10.00">reads_fastqc</text>
</g>
<!-- 2&#45;&gt;0 -->
<g id="edge2" class="edge">
<title>2&#45;&gt;0</title>
<path fill="none" stroke="grey" stroke-width="2" d="M29.49,-143.68C20.02,-124.76 9.07,-94.21 22.5,-72 36.33,-49.12 63.67,-35.63 86.42,-27.99"/>
<polygon fill="grey" stroke="grey" stroke-width="2" points="87.64,-31.28 96.16,-24.97 85.57,-24.59 87.64,-31.28"/>
</g>
<!-- 2&#45;&gt;1 -->
<g id="edge5" class="edge">
<title>2&#45;&gt;1</title>
<path fill="none" stroke="grey" stroke-width="2" d="M48.15,-143.7C52.14,-135.73 56.95,-126.1 61.37,-117.26"/>
<polygon fill="grey" stroke="grey" stroke-width="2" points="64.61,-118.61 65.95,-108.1 58.35,-115.48 64.61,-118.61"/>
</g>
<!-- 3 -->
<g id="node4" class="node">
<title>3</title>
<path fill="none" stroke="#56a9d8" stroke-width="2" d="M199.5,-108C199.5,-108 147.5,-108 147.5,-108 141.5,-108 135.5,-102 135.5,-96 135.5,-96 135.5,-84 135.5,-84 135.5,-78 141.5,-72 147.5,-72 147.5,-72 199.5,-72 199.5,-72 205.5,-72 211.5,-78 211.5,-84 211.5,-84 211.5,-96 211.5,-96 211.5,-102 205.5,-108 199.5,-108"/>
<text text-anchor="middle" x="173.5" y="-87.5" font-family="sans" font-size="10.00">bam_bigwig</text>
</g>
<!-- 3&#45;&gt;0 -->
<g id="edge1" class="edge">
<title>3&#45;&gt;0</title>
<path fill="none" stroke="grey" stroke-width="2" d="M161.14,-71.7C155.27,-63.47 148.13,-53.48 141.66,-44.42"/>
<polygon fill="grey" stroke="grey" stroke-width="2" points="144.38,-42.21 135.72,-36.1 138.68,-46.28 144.38,-42.21"/>
</g>
<!-- 4 -->
<g id="node5" class="node">
<title>4</title>
<path fill="none" stroke="#56d0d8" stroke-width="2" d="M234.5,-180C234.5,-180 196.5,-180 196.5,-180 190.5,-180 184.5,-174 184.5,-168 184.5,-168 184.5,-156 184.5,-156 184.5,-150 190.5,-144 196.5,-144 196.5,-144 234.5,-144 234.5,-144 240.5,-144 246.5,-150 246.5,-156 246.5,-156 246.5,-168 246.5,-168 246.5,-174 240.5,-180 234.5,-180"/>
<text text-anchor="middle" x="215.5" y="-159.5" font-family="sans" font-size="10.00">bam_sort</text>
</g>
<!-- 4&#45;&gt;3 -->
<g id="edge6" class="edge">
<title>4&#45;&gt;3</title>
<path fill="none" stroke="grey" stroke-width="2" d="M205.12,-143.7C200.24,-135.56 194.31,-125.69 188.92,-116.7"/>
<polygon fill="grey" stroke="grey" stroke-width="2" points="191.91,-114.88 183.76,-108.1 185.91,-118.48 191.91,-114.88"/>
</g>
<!-- 8 -->
<g id="node9" class="node">
<title>8</title>
<path fill="none" stroke="#68d856" stroke-width="2" d="M275.5,-108C275.5,-108 241.5,-108 241.5,-108 235.5,-108 229.5,-102 229.5,-96 229.5,-96 229.5,-84 229.5,-84 229.5,-78 235.5,-72 241.5,-72 241.5,-72 275.5,-72 275.5,-72 281.5,-72 287.5,-78 287.5,-84 287.5,-84 287.5,-96 287.5,-96 287.5,-102 281.5,-108 275.5,-108"/>
<text text-anchor="middle" x="258.5" y="-87.5" font-family="sans" font-size="10.00">callpeak</text>
</g>
<!-- 4&#45;&gt;8 -->
<g id="edge10" class="edge">
<title>4&#45;&gt;8</title>
<path fill="none" stroke="grey" stroke-width="2" d="M226.13,-143.7C231.13,-135.56 237.19,-125.69 242.71,-116.7"/>
<polygon fill="grey" stroke="grey" stroke-width="2" points="245.74,-118.46 247.99,-108.1 239.78,-114.79 245.74,-118.46"/>
</g>
<!-- 5 -->
<g id="node6" class="node">
<title>5</title>
<path fill="none" stroke="#d85656" stroke-width="2" d="M248,-252C248,-252 183,-252 183,-252 177,-252 171,-246 171,-240 171,-240 171,-228 171,-228 171,-222 177,-216 183,-216 183,-216 248,-216 248,-216 254,-216 260,-222 260,-228 260,-228 260,-240 260,-240 260,-246 254,-252 248,-252"/>
<text text-anchor="middle" x="215.5" y="-231.5" font-family="sans" font-size="10.00">align_reads_se</text>
</g>
<!-- 5&#45;&gt;4 -->
<g id="edge7" class="edge">
<title>5&#45;&gt;4</title>
<path fill="none" stroke="grey" stroke-width="2" d="M215.5,-215.7C215.5,-207.98 215.5,-198.71 215.5,-190.11"/>
<polygon fill="grey" stroke="grey" stroke-width="2" points="219,-190.1 215.5,-180.1 212,-190.1 219,-190.1"/>
</g>
<!-- 6 -->
<g id="node7" class="node">
<title>6</title>
<path fill="none" stroke="#56d8b9" stroke-width="2" d="M247.5,-324C247.5,-324 183.5,-324 183.5,-324 177.5,-324 171.5,-318 171.5,-312 171.5,-312 171.5,-300 171.5,-300 171.5,-294 177.5,-288 183.5,-288 183.5,-288 247.5,-288 247.5,-288 253.5,-288 259.5,-294 259.5,-300 259.5,-300 259.5,-312 259.5,-312 259.5,-318 253.5,-324 247.5,-324"/>
<text text-anchor="middle" x="215.5" y="-303.5" font-family="sans" font-size="10.00">bowtie2_index</text>
</g>
<!-- 6&#45;&gt;5 -->
<g id="edge8" class="edge">
<title>6&#45;&gt;5</title>
<path fill="none" stroke="grey" stroke-width="2" d="M215.5,-287.7C215.5,-279.98 215.5,-270.71 215.5,-262.11"/>
<polygon fill="grey" stroke="grey" stroke-width="2" points="219,-262.1 215.5,-252.1 212,-262.1 219,-262.1"/>
</g>
<!-- 7 -->
<g id="node8" class="node">
<title>7</title>
<path fill="none" stroke="#d8cb56" stroke-width="2" d="M261.5,-396C261.5,-396 169.5,-396 169.5,-396 163.5,-396 157.5,-390 157.5,-384 157.5,-384 157.5,-372 157.5,-372 157.5,-366 163.5,-360 169.5,-360 169.5,-360 261.5,-360 261.5,-360 267.5,-360 273.5,-366 273.5,-372 273.5,-372 273.5,-384 273.5,-384 273.5,-390 267.5,-396 261.5,-396"/>
<text text-anchor="middle" x="215.5" y="-375.5" font-family="sans" font-size="10.00">download_reference</text>
</g>
<!-- 7&#45;&gt;6 -->
<g id="edge9" class="edge">
<title>7&#45;&gt;6</title>
<path fill="none" stroke="grey" stroke-width="2" d="M215.5,-359.7C215.5,-351.98 215.5,-342.71 215.5,-334.11"/>
<polygon fill="grey" stroke="grey" stroke-width="2" points="219,-334.1 215.5,-324.1 212,-334.1 219,-334.1"/>
</g>
<!-- 8&#45;&gt;0 -->
<g id="edge4" class="edge">
<title>8&#45;&gt;0</title>
<path fill="none" stroke="grey" stroke-width="2" d="M229.21,-73.81C208.85,-63.26 181.58,-49.12 159.84,-37.84"/>
<polygon fill="grey" stroke="grey" stroke-width="2" points="161.38,-34.7 150.9,-33.21 158.16,-40.92 161.38,-34.7"/>
</g>
</g>
</svg>
